<?xml version="1.0" encoding="UTF-8"?>
<svg width="250px" height="150px" viewBox="0 0 250 150" version="1.1" xmlns="http://www.w3.org/2000/svg" xmlns:xlink="http://www.w3.org/1999/xlink">
    <!-- Generator: Sketch 42 (36781) - http://www.bohemiancoding.com/sketch -->
    <title>Artboard Copy 5</title>
    <desc>Created with Sketch.</desc>
    <defs>
        <polygon id="path-1" points="14.4668559 16.9613644 14.4668559 0.980887767 0.841853573 0.980887767 0.841853573 16.9613644 14.4668559 16.9613644"></polygon>
    </defs>
    <g id="Page-1" stroke="none" stroke-width="1" fill="none" fill-rule="evenodd">
        <g id="Artboard-Copy-5">
            <g id="Page-1-Copy" transform="translate(16.000000, 59.000000)">
                <path d="M75.1074318,29.1118415 C75.1074318,26.2588409 73.0831397,24.4331797 70.4812409,24.4331797 C67.5910727,24.4331797 65.8593207,26.33446 65.8593207,29.1118415 C65.8593207,31.8892231 67.5910727,33.7905033 70.4812409,33.7905033 C73.0831397,33.7905033 75.1074318,31.9626816 75.1074318,29.1118415 M73.1536055,29.1118415 C73.1536055,31.3037152 72.579202,32.9846198 70.4812409,32.9846198 C68.3864829,32.9846198 67.7373428,31.3037152 67.7373428,29.1118415 C67.7373428,26.9188876 68.3864829,25.237983 70.4812409,25.237983 C72.579202,25.237983 73.1536055,26.9188876 73.1536055,29.1118415" id="Fill-1" fill="#4C586F"></path>
                <path d="M84.7174813,25.238199 C84.4270765,25.238199 84.2082053,25.5298727 84.2082053,25.8247872 L84.2082053,30.5736668 C84.2082053,32.546245 82.6205879,33.7907194 80.6699646,33.7907194 C78.7193413,33.7907194 77.1306563,32.546245 77.1306563,30.5736668 L77.1306563,25.8247872 C77.1306563,25.5298727 76.9139204,25.238199 76.6245833,25.238199 L75.8291731,25.238199 L75.8291731,24.5781523 L80.1649593,24.5781523 L80.1649593,25.238199 L79.3706168,25.238199 C79.1528132,25.238199 78.8634761,25.5298727 78.8634761,25.8247872 L78.8634761,30.5736668 C78.8634761,31.9628977 79.8745545,32.6931621 81.1034365,32.6931621 C82.3323185,32.6931621 83.2707957,31.9628977 83.2707957,30.5736668 L83.2707957,25.8247872 C83.2707957,25.5298727 83.0540598,25.238199 82.7647227,25.238199 L81.9703802,25.238199 L81.9703802,24.5781523 L85.4392226,24.5781523 L85.4392226,25.238199 L84.7174813,25.238199 Z" id="Fill-3" fill="#4C586F"></path>
                <path d="M93.7474686,27.5749373 L93.7474686,27.2821833 C93.7474686,26.1889472 92.8805249,25.3819834 91.8683788,25.3819834 L91.1466375,25.3819834 L91.1466375,32.4015965 C91.1466375,32.6932702 91.3601704,32.9125656 91.6505752,32.9125656 L92.3018506,32.9125656 L92.3018506,33.64283 L88.254334,33.64283 L88.254334,32.9125656 L88.9056094,32.9125656 C89.1949465,32.9125656 89.4127501,32.6932702 89.4127501,32.4015965 L89.4127501,25.3819834 L88.6878058,25.3819834 C87.6788627,25.3819834 86.8129867,26.1889472 86.8129867,27.2821833 L86.8129867,27.5749373 L86.1617113,27.5749373 L86.1617113,24.5782603 L94.3976763,24.5782603 L94.3976763,27.5749373 L93.7474686,27.5749373 Z" id="Fill-5" fill="#4C586F"></path>
                <path d="M102.200597,27.5749373 L102.200597,27.2821833 C102.200597,26.1889472 101.334721,25.3819834 100.248906,25.3819834 L98.2256812,25.3819834 L98.2256812,28.6746551 L99.022159,28.6746551 C99.6702314,28.6746551 100.103703,28.1604452 100.103703,27.5749373 L100.103703,27.2119656 L100.754979,27.2119656 L100.754979,30.867609 L100.103703,30.867609 L100.103703,30.5013965 C100.103703,29.9169689 99.6702314,29.4772978 99.022159,29.4772978 L98.2256812,29.4772978 L98.2256812,32.4015965 C98.2256812,32.6932702 98.4424171,32.9125656 98.7306865,32.9125656 L99.741765,32.9125656 L99.741765,33.64283 L95.335513,33.64283 L95.335513,32.9125656 L95.9867884,32.9125656 C96.2761255,32.9125656 96.4917938,32.6932702 96.4917938,32.4015965 L96.4917938,25.8248952 C96.4917938,25.5299807 96.2761255,25.2383071 95.9867884,25.2383071 L95.335513,25.2383071 L95.335513,24.5782603 L102.849737,24.5782603 L102.849737,27.5749373 L102.200597,27.5749373 Z" id="Fill-7" fill="#4C586F"></path>
                <path d="M103.933416,33.6432621 L103.933416,32.9129977 L104.583624,32.9129977 C104.872961,32.9129977 105.089697,32.692622 105.089697,32.4020286 L105.089697,25.8253274 C105.089697,25.5293326 104.872961,25.2376589 104.583624,25.2376589 L103.933416,25.2376589 L103.933416,24.5776122 L108.051399,24.5776122 L108.051399,25.2376589 L107.400123,25.2376589 C107.115057,25.2376589 106.823585,25.5293326 106.823585,25.8253274 L106.823585,32.4020286 C106.823585,32.692622 107.115057,32.9129977 107.400123,32.9129977 L108.051399,32.9129977 L108.051399,33.6432621 L103.933416,33.6432621 Z" id="Fill-9" fill="#4C586F"></path>
                <path d="M116.505701,27.5749373 L116.505701,27.2821833 C116.505701,26.1889472 115.710291,25.3819834 114.626612,25.3819834 L113.903803,25.3819834 L113.903803,32.4015965 C113.903803,32.6932702 114.189937,32.9125656 114.483545,32.9125656 L115.132685,32.9125656 L115.132685,33.64283 L111.011499,33.64283 L111.011499,32.9125656 L111.665978,32.9125656 C111.952112,32.9125656 112.169915,32.6932702 112.169915,32.4015965 L112.169915,25.3819834 L111.444971,25.3819834 C110.43496,25.3819834 109.570152,26.1889472 109.570152,27.2821833 L109.570152,27.5749373 L108.918876,27.5749373 L108.918876,24.5782603 L117.226375,24.5782603 L117.226375,27.5749373 L116.505701,27.5749373 Z" id="Fill-11" fill="#4C586F"></path>
                <path d="M125.730217,27.5749373 L125.730217,27.2821833 C125.730217,26.1889472 124.933739,25.3819834 123.851127,25.3819834 L123.127251,25.3819834 L123.127251,32.4015965 C123.127251,32.6932702 123.418723,32.9125656 123.632256,32.9125656 L124.284599,32.9125656 L124.284599,33.64283 L120.234947,33.64283 L120.234947,32.9125656 L120.888358,32.9125656 C121.177695,32.9125656 121.393363,32.6932702 121.393363,32.4015965 L121.393363,25.3819834 L120.67269,25.3819834 C119.660544,25.3819834 118.791465,26.1889472 118.791465,27.2821833 L118.791465,27.5749373 L118.140189,27.5749373 L118.140189,24.5782603 L126.453026,24.5782603 L126.453026,27.5749373 L125.730217,27.5749373 Z" id="Fill-13" fill="#4C586F"></path>
                <path d="M127.315379,33.6432621 L127.315379,32.9129977 L127.96879,32.9129977 C128.254924,32.9129977 128.474863,32.692622 128.474863,32.4020286 L128.474863,25.8253274 C128.474863,25.5293326 128.254924,25.2376589 127.96879,25.2376589 L127.315379,25.2376589 L127.315379,24.5776122 L134.83067,24.5776122 L134.83067,27.5753694 L134.182598,27.5753694 L134.182598,27.2826155 C134.182598,26.188299 133.315654,25.3813352 132.30244,25.3813352 L130.207682,25.3813352 L130.207682,28.6740069 L131.075694,28.6740069 C131.6533,28.6740069 132.158306,28.159797 132.158306,27.5753694 L132.158306,27.2113174 L132.808513,27.2113174 L132.808513,30.8669608 L132.158306,30.8669608 L132.158306,30.5007483 C132.158306,29.917401 131.6533,29.4766497 131.075694,29.4766497 L130.207682,29.4766497 L130.207682,32.8395391 L132.518109,32.8395391 C133.53239,32.8395391 134.398266,31.9623575 134.398266,30.9414997 L134.398266,30.2814529 L135.047406,30.2814529 L135.047406,33.6432621 L127.315379,33.6432621 Z" id="Fill-15" fill="#4C586F"></path>
                <path d="M145.162675,33.6432621 L145.162675,32.9129977 L144.73027,32.9129977 C144.3694,32.9129977 144.078995,32.7682411 143.862259,32.4020286 L141.984237,29.4021108 C143.213119,29.3308128 144.150528,28.3077944 144.150528,26.9920221 C144.150528,25.67733 143.13945,24.5776122 141.837967,24.5776122 L136.348035,24.5776122 L136.348035,25.2376589 L137.000378,25.2376589 C137.286512,25.2376589 137.577985,25.5293326 137.577985,25.8253274 L137.577985,32.4020286 C137.577985,32.692622 137.286512,32.9129977 137.000378,32.9129977 L136.348035,32.9129977 L136.348035,33.6432621 L140.468153,33.6432621 L140.468153,32.9129977 L139.81581,32.9129977 C139.528608,32.9129977 139.309737,32.692622 139.309737,32.4020286 L139.309737,29.4021108 L140.032546,29.4021108 L142.632309,33.6432621 L145.162675,33.6432621 Z M140.633641,28.5983878 L139.043889,28.5983878 L139.043889,26.0403017 L139.043889,25.3813352 L140.633641,25.3813352 C141.501653,25.3813352 142.150793,26.1159208 142.150793,26.9920221 C142.150793,27.8648825 141.501653,28.5983878 140.633641,28.5983878 L140.633641,28.5983878 Z" id="Fill-17" fill="#4C586F"></path>
                <path d="M149.42618,33.7910435 C147.330354,33.7910435 146.10254,33.0596987 146.10254,33.0596987 L146.10254,30.2812369 L146.824281,30.2812369 C147.042085,31.9621415 147.836427,32.9840796 149.42618,32.9840796 C150.363589,32.9840796 151.087466,32.4018125 151.087466,31.4500921 C151.087466,29.0410836 146.027803,30.6463691 146.027803,26.9928863 C146.027803,25.162904 147.474489,24.4326396 148.919039,24.4326396 C150.87073,24.4326396 151.881808,25.162904 151.881808,25.162904 L151.881808,27.4293165 L151.231601,27.4293165 C150.944399,26.0411659 150.363589,25.2385231 148.919039,25.2385231 C148.124697,25.2385231 147.474489,25.6771139 147.474489,26.4786764 C147.474489,28.7450889 152.532016,27.5038553 152.532016,31.0860402 C152.532016,33.0596987 151.087466,33.7910435 149.42618,33.7910435" id="Fill-19" fill="#4C586F"></path>
                <path d="M16.7185607,17.2639488 L16.7185607,16.1134582 L15.7886248,16.1134582 C15.2729427,16.1134582 14.7583284,15.8055804 14.4465703,15.1725405 L8.97692433,1.0803809 L7.73736568,1.0803809 L2.26665204,15.1725405 C1.95916462,15.8055804 1.44561793,16.1134582 0.926732912,16.1134582 L0,16.1134582 L0,17.2639488 L5.77606573,17.2639488 L5.77606573,16.1134582 L4.64327354,16.1134582 C4.12545619,16.1134582 3.71654063,15.5906061 3.91939691,15.1725405 L5.05752742,12.2482418 L10.1107842,12.2482418 L11.3524782,15.1725405 C11.454974,15.5906061 11.1453512,16.1134582 10.5239704,16.1134582 L9.39117822,16.1134582 L9.39117822,17.2639488 L16.7185607,17.2639488 Z M9.59616983,10.7887932 L5.57214178,10.7887932 L7.63807287,5.77308625 L9.59616983,10.7887932 Z" id="Fill-21" fill="#4C586F"></path>
                <path d="M32.0320747,17.2639488 L32.0320747,16.1134582 L33.1637992,16.1134582 C33.6794812,16.1134582 34.0926674,15.5906061 34.0926674,15.1725405 L34.0926674,5.253475 L28.7255173,17.2639488 L27.277764,17.2639488 L21.9127492,5.253475 L21.9127492,15.1725405 C21.9127492,15.5906061 22.3280707,16.1134582 22.8426851,16.1134582 L23.9776126,16.1134582 L23.9776126,17.2639488 L18.3008397,17.2639488 L18.3008397,16.1134582 L19.4368349,16.1134582 C19.9503816,16.1134582 20.3657031,15.5906061 20.3657031,15.1725405 L20.3657031,3.47534586 C20.3657031,2.9557346 19.9503816,2.537669 19.4368349,2.537669 L18.3008397,2.537669 L18.3008397,1.2834722 L23.3583671,1.2834722 L28.6230215,13.2928657 L33.9880363,1.2834722 L39.1501949,1.2834722 L39.1501949,2.537669 L38.0120644,2.537669 C37.4985177,2.537669 37.0863991,2.9557346 37.0863991,3.47534586 L37.0863991,15.1725405 C37.0863991,15.5906061 37.4985177,16.1134582 38.0120644,16.1134582 L39.1501949,16.1134582 L39.1501949,17.2639488 L32.0320747,17.2639488 Z" id="Fill-23" fill="#4C586F"></path>
                <path d="M41.1102136,17.2639488 L41.1102136,16.1134582 L42.2451411,16.1134582 C42.7618908,16.1134582 43.171874,15.5906061 43.171874,15.1725405 L43.171874,3.47534586 C43.171874,2.9557346 42.7618908,2.537669 42.2451411,2.537669 L41.1102136,2.537669 L41.1102136,1.2834722 L54.4250594,1.2834722 L54.4250594,6.60921746 L53.1876361,6.60921746 L53.1876361,6.08960621 C53.1876361,4.20777086 51.7388152,2.74508139 49.880011,2.74508139 L46.2691692,2.74508139 L46.2691692,8.49213307 L47.8204859,8.49213307 C48.85185,8.49213307 49.6782224,7.65384132 49.6782224,6.60921746 L49.6782224,5.98698028 L50.9145781,5.98698028 L50.9145781,12.3551889 L49.6782224,12.3551889 L49.6782224,11.72647 C49.6782224,10.6829265 48.85185,9.84787553 47.8204859,9.84787553 L46.2691692,9.84787553 L46.2691692,15.9049655 L50.2964002,15.9049655 C52.153069,15.9049655 53.6008223,14.3385699 53.6008223,12.5626013 L53.6008223,11.417512 L54.8382456,11.417512 L54.8382456,17.2639488 L41.1102136,17.2639488 Z" id="Fill-25" fill="#4C586F"></path>
                <path d="M72.5909463,17.2639488 L72.5909463,16.1134582 L71.8681373,16.1134582 C71.2499595,16.1134582 70.7321421,15.6975531 70.3200236,15.1725405 L67.0177368,9.84787553 C69.2865242,9.74416933 70.8325026,7.86449453 70.8325026,5.56567386 C70.8325026,3.16638781 69.0793973,1.2834722 66.8095422,1.2834722 L57.1055383,1.2834722 L57.1055383,2.537669 L58.2415334,2.537669 C58.8629143,2.537669 59.172537,2.9557346 59.172537,3.47534586 L59.172537,15.1725405 C59.172537,15.5906061 58.8629143,16.1134582 58.2415334,16.1134582 L57.1055383,16.1134582 L57.1055383,17.2639488 L64.3304249,17.2639488 L64.3304249,16.1134582 L63.1997681,16.1134582 C62.6798154,16.1134582 62.2687645,15.5906061 62.2687645,15.1725405 L62.2687645,9.84787553 L63.6129543,9.84787553 L68.1526643,17.2639488 L72.5909463,17.2639488 Z M65.161068,8.38626633 L62.2687645,8.38626633 L62.2687645,3.79186581 L62.2687645,2.74508139 L65.161068,2.74508139 C66.7081141,2.74508139 67.7384105,3.9992782 67.7384105,5.56567386 C67.7384105,7.12990898 66.7081141,8.38626633 65.161068,8.38626633 L65.161068,8.38626633 Z" id="Fill-27" fill="#4C586F"></path>
                <path d="M74.3431975,17.2639488 L74.3431975,16.1134582 L75.478125,16.1134582 C75.9959424,16.1134582 76.4080609,15.5906061 76.4080609,15.1725405 L76.4080609,3.47534586 C76.4080609,2.9557346 75.9959424,2.537669 75.478125,2.537669 L74.3431975,2.537669 L74.3431975,1.2834722 L81.5691518,1.2834722 L81.5691518,2.537669 L80.4331566,2.537669 C79.9142716,2.537669 79.5074914,2.9557346 79.5074914,3.47534586 L79.5074914,15.1725405 C79.5074914,15.5906061 79.9142716,16.1134582 80.4331566,16.1134582 L81.5691518,16.1134582 L81.5691518,17.2639488 L74.3431975,17.2639488 Z" id="Fill-29" fill="#4C586F"></path>
                <g id="Group-33" transform="translate(82.210178, 0.302584)" fill="#4C586F">
                    <path d="M8.85435643,17.2723749 C3.79682901,17.2723749 0.804165011,13.8241439 0.804165011,9.02125072 C0.804165011,4.11681189 3.79682901,0.77768844 8.85435643,0.77768844 C12.4651983,0.77768844 14.6346928,1.81691094 14.6346928,1.81691094 L14.6346928,6.306525 L13.3919312,6.306525 C12.9851509,3.9050784 11.6409612,2.12586898 8.85435643,2.12586898 C5.54993436,2.12586898 4.10751942,5.36884815 4.10751942,9.02125072 C4.10751942,12.5764287 5.75599363,15.8107657 8.85435643,15.8107657 C11.6409612,15.8107657 12.9851509,14.2443701 13.3919312,11.3222319 L14.6346928,11.3222319 L14.6346928,16.1262054 C14.6346928,16.1262054 12.6733929,17.2723749 8.85435643,17.2723749" id="Fill-31"></path>
                </g>
                <path d="M114.803417,17.2639488 L114.803417,16.1134582 L113.772053,16.1134582 C113.255303,16.1134582 112.741756,15.8055804 112.428931,15.1725405 L106.96142,1.0803809 L105.826493,1.0803809 L100.249012,15.1725405 C100.046156,15.8055804 99.4205047,16.1134582 98.906958,16.1134582 L97.9802251,16.1134582 L97.9802251,17.2639488 L103.760561,17.2639488 L103.760561,16.1134582 L102.624566,16.1134582 C102.107817,16.1134582 101.799261,15.5906061 101.899622,15.1725405 L103.036685,12.2482418 L108.198843,12.2482418 L109.331636,15.1725405 C109.536627,15.5906061 109.125576,16.1134582 108.609894,16.1134582 L107.472831,16.1134582 L107.472831,17.2639488 L114.803417,17.2639488 Z M107.683161,10.7887932 L103.656998,10.7887932 L105.61723,5.77308625 L107.683161,10.7887932 Z" id="Fill-34" fill="#4C586F"></path>
                <path d="M132.488214,2.53777703 C131.969329,2.53777703 131.558278,2.95584263 131.558278,3.47545388 L131.558278,17.5751754 L130.009097,17.5751754 L120.100101,5.04617064 L120.100101,15.1726485 C120.100101,15.5907141 120.51222,16.1135662 121.030037,16.1135662 L122.369956,16.1135662 L122.369956,17.2640568 L116.073938,17.2640568 L116.073938,16.1135662 L117.626322,16.1135662 C118.140937,16.1135662 118.553055,15.5907141 118.553055,15.1726485 L118.553055,3.47545388 C118.553055,2.95584263 118.140937,2.53777703 117.626322,2.53777703 L116.073938,2.53777703 L116.073938,1.28358023 L121.030037,1.28358023 L130.009097,12.5627093 L130.009097,3.47545388 C130.009097,2.95584263 129.595911,2.53777703 129.080229,2.53777703 L127.529979,2.53777703 L127.529979,1.28358023 L133.825998,1.28358023 L133.825998,2.53777703 L132.488214,2.53777703 Z" id="Fill-36" fill="#4C586F"></path>
                <path d="M141.15701,17.2639488 L141.15701,16.1134582 L142.291938,16.1134582 C142.808688,16.1134582 143.115107,15.5906061 143.115107,15.1725405 L143.115107,3.47534586 C143.115107,2.9557346 142.808688,2.537669 142.291938,2.537669 L141.15701,2.537669 L141.15701,1.2834722 L154.370428,1.2834722 L154.370428,6.60921746 L153.233365,6.60921746 L153.233365,6.08960621 C153.233365,4.20777086 151.687387,2.74508139 149.826447,2.74508139 L146.214538,2.74508139 L146.214538,8.49213307 L147.760516,8.49213307 C148.795083,8.49213307 149.61932,7.65384132 149.61932,6.60921746 L149.61932,5.98698028 L150.861014,5.98698028 L150.861014,12.3551889 L149.61932,12.3551889 L149.61932,11.72647 C149.61932,10.6829265 148.795083,9.84787553 147.760516,9.84787553 L146.214538,9.84787553 L146.214538,15.9049655 L150.237498,15.9049655 C152.095235,15.9049655 153.538717,14.3385699 153.538717,12.5626013 L153.538717,11.417512 L154.780411,11.417512 L154.780411,17.2639488 L141.15701,17.2639488 Z" id="Fill-38" fill="#4C586F"></path>
                <path d="M172.945764,17.2639488 L172.945764,16.1134582 L172.017964,16.1134582 C171.397651,16.1134582 170.878766,15.8055804 170.670571,15.1725405 L165.104835,1.0803809 L163.967772,1.0803809 L158.390292,15.1725405 C158.188504,15.8055804 157.56819,16.1134582 157.152869,16.1134582 L156.118302,16.1134582 L156.118302,17.2639488 L162.006472,17.2639488 L162.006472,16.1134582 L160.867274,16.1134582 C160.355863,16.1134582 159.940541,15.5906061 160.148736,15.1725405 L161.282596,12.2482418 L166.340123,12.2482418 L167.477186,15.1725405 C167.680042,15.5906061 167.266856,16.1134582 166.753309,16.1134582 L165.620517,16.1134582 L165.620517,17.2639488 L172.945764,17.2639488 Z M165.825509,10.7887932 L161.795075,10.7887932 L163.760645,5.77308625 L165.825509,10.7887932 Z" id="Fill-40" fill="#4C586F"></path>
                <path d="M187.705908,10.4731375 C187.187023,10.4731375 186.772769,10.8922833 186.772769,11.417296 L186.772769,11.9379875 L186.772769,15.9047495 L186.772769,16.1132421 C186.772769,16.1132421 184.402553,17.5748513 180.68708,17.5748513 C175.630621,17.5748513 172.533325,14.1277006 172.533325,9.32372713 C172.533325,4.41928829 175.630621,1.08124512 180.68708,1.08124512 C184.29899,1.08124512 186.468484,2.11938735 186.468484,2.11938735 L186.468484,6.6090014 L185.228926,6.6090014 C184.711108,4.20755481 183.372257,2.42834539 180.68708,2.42834539 C177.383726,2.42834539 175.941311,5.67132455 175.941311,9.32372713 C175.941311,12.8789051 177.488357,16.1132421 180.68708,16.1132421 C182.128428,16.1132421 183.059431,15.8053644 183.779037,15.0707788 L183.779037,11.417296 C183.779037,10.8922833 183.372257,10.4731375 182.85444,10.4731375 L181.51025,10.4731375 L181.51025,9.22002093 L188.632641,9.22002093 L188.632641,10.4731375 L187.705908,10.4731375 Z" id="Fill-42" fill="#4C586F"></path>
                <path d="M189.907219,17.2639488 L189.907219,16.1134582 L191.042146,16.1134582 C191.554625,16.1134582 191.968879,15.5906061 191.968879,15.1725405 L191.968879,3.47534586 C191.968879,2.9557346 191.554625,2.537669 191.042146,2.537669 L189.907219,2.537669 L189.907219,1.2834722 L197.645652,1.2834722 L197.645652,2.537669 L195.891479,2.537669 C195.376865,2.537669 194.961543,2.9557346 194.961543,3.47534586 L194.961543,15.9049655 L198.678084,15.9049655 C200.429054,15.9049655 201.983573,14.3385699 201.983573,12.5626013 L201.983573,11.417512 L203.118501,11.417512 L203.118501,17.2639488 L189.907219,17.2639488 Z" id="Fill-44" fill="#4C586F"></path>
                <g id="Group-48" transform="translate(203.923947, 0.302584)">
                    <mask id="mask-2" fill="white">
                        <use xlink:href="#path-1"></use>
                    </mask>
                    <g id="Clip-47"></g>
                    <path d="M0.841853573,16.9613644 L0.841853573,15.8108738 L1.97784875,15.8108738 C2.38996731,15.8108738 2.80635652,15.2880217 2.80635652,14.8699561 L2.80635652,3.17276142 C2.80635652,2.65315017 2.38996731,2.23508457 1.97784875,2.23508457 L0.841853573,2.23508457 L0.841853573,0.980887767 L14.0542036,0.980887767 L14.0542036,6.30663302 L12.9214114,6.30663302 L12.9214114,5.78702177 C12.9214114,3.90518643 11.3711623,2.44249696 9.51342582,2.44249696 L5.90365165,2.44249696 L5.90365165,8.18954864 L7.4485624,8.18954864 C8.48206177,8.18954864 9.30843421,7.35125689 9.30843421,6.30663302 L9.30843421,5.68439585 L10.5437222,5.68439585 L10.5437222,12.0526044 L9.30843421,12.0526044 L9.30843421,11.4238856 C9.30843421,10.380342 8.48206177,9.54529109 7.4485624,9.54529109 L5.90365165,9.54529109 L5.90365165,15.6023811 L9.9276797,15.6023811 C11.7811455,15.6023811 13.2288988,14.0359854 13.2288988,12.2600168 L13.2288988,11.1149276 L14.4673898,11.1149276 L14.4673898,16.9613644 L0.841853573,16.9613644 Z" id="Fill-46" fill="#4C586F" mask="url(#mask-2)"></path>
                </g>
                <path d="M156.355857,26.0962598 C156.355857,25.3152225 155.739815,24.6724601 154.948675,24.6724601 C154.157536,24.6724601 153.532952,25.3227844 153.532952,26.1038217 C153.532952,26.884859 154.148994,27.5276213 154.941202,27.5276213 C155.732341,27.5276213 156.355857,26.8772971 156.355857,26.0962598 M156.207452,26.0962598 C156.207452,26.8059991 155.661875,27.3861056 154.941202,27.3861056 C154.223731,27.3861056 153.681357,26.8146412 153.681357,26.1038217 C153.681357,25.3940824 154.226934,24.8139759 154.948675,24.8139759 C155.666146,24.8139759 156.207452,25.3865205 156.207452,26.0962598 M155.603154,25.788382 C155.603154,25.4891464 155.376809,25.3109014 155.034088,25.3109014 L154.375339,25.3109014 L154.375339,26.8059991 L154.656135,26.8059991 L154.656135,26.2896286 L154.963622,26.2896286 L155.322358,26.8059991 L155.657605,26.8059991 L155.260433,26.2420966 C155.46329,26.1826816 155.603154,26.033604 155.603154,25.788382 M155.314884,25.8045861 C155.314884,25.950423 155.205982,26.0411659 155.022344,26.0411659 L154.656135,26.0411659 L154.656135,25.5680064 L155.022344,25.5680064 C155.205982,25.5680064 155.314884,25.6501071 155.314884,25.8045861" id="Fill-49" fill="#4C586F"></path>
            </g>
        </g>
    </g>
</svg>