<?xml version="1.0" encoding="UTF-8"?>
<svg width="48px" height="48px" viewBox="0 0 48 48" version="1.1" xmlns="http://www.w3.org/2000/svg" xmlns:xlink="http://www.w3.org/1999/xlink">
    <!-- Generator: Sketch 42 (36781) - http://www.bohemiancoding.com/sketch -->
    <title>facebook-icon copy 10</title>
    <desc>Created with Sketch.</desc>
    <defs></defs>
    <g id="Page-1" stroke="none" stroke-width="1" fill="none" fill-rule="evenodd">
        <g id="facebook-icon-copy-10">
            <g id="Group">
                <g id="Group-4">
                    <circle id="Oval-2-Copy-2" cx="33" cy="33" r="33"></circle>
                </g>
            </g>
            <path d="M34.6754242,12 L13.3245758,12 C12.5928668,12 12,12.5929523 12,13.3246558 L12,34.6753442 C12,35.4068679 12.5928668,36 13.3245758,36 L24.8191597,36 L24.8191597,26.7059181 L21.6915243,26.7059181 L21.6915243,23.0838195 L24.8191597,23.0838195 L24.8191597,20.4126567 C24.8191597,17.3128309 26.7124128,15.6248862 29.4777458,15.6248862 C30.8023215,15.6248862 31.9408452,15.7234418 32.2726636,15.767594 L32.2726636,19.0070702 L30.3546815,19.0079694 C28.8507979,19.0079694 28.5595351,19.7225875 28.5595351,20.7713595 L28.5595351,23.0838195 L32.1463208,23.0838195 L31.6792572,26.7059181 L28.5595351,26.7059181 L28.5595351,36 L34.6754242,36 C35.4068634,36 36,35.4068679 36,34.6753442 L36,13.3246558 C36,12.5929523 35.4068634,12 34.6754242,12" id="Fill-1" fill="#4C586F"></path>
        </g>
    </g>
</svg>