<?xml version="1.0" encoding="UTF-8"?>
<svg width="250px" height="150px" viewBox="0 0 250 150" version="1.1" xmlns="http://www.w3.org/2000/svg" xmlns:xlink="http://www.w3.org/1999/xlink">
    <!-- Generator: Sketch 42 (36781) - http://www.bohemiancoding.com/sketch -->
    <title>Artboard Copy 7</title>
    <desc>Created with Sketch.</desc>
    <defs></defs>
    <g id="Page-1" stroke="none" stroke-width="1" fill="none" fill-rule="evenodd">
        <g id="Artboard-Copy-7" fill-rule="nonzero" fill="#4C586F">
            <g id="Gap_logo" transform="translate(86.000000, 47.000000)">
                <path d="M5.99669725,0 C4.56550459,0 0.0143119266,0.454556962 0.0143119266,6.33493671 L0.0143119266,48.1108861 C0.0143119266,48.1613924 -0.228990826,52.2379747 1.96073394,54.604557 C3.06786655,55.7530938 4.61030904,56.3678215 6.19706422,56.2929114 C7.7579697,56.2583196 9.25326812,55.6531986 10.4047706,54.5901266 L10.4047706,54.5901266 C10.7046795,54.4405655 11.0566049,54.4405655 11.3565138,54.5901266 C11.7180386,54.8943354 11.9080211,55.3583837 11.8645872,55.8311392 L12.6517431,55.8311392 L12.6517431,29.6327848 L14.5981651,29.6327848 L14.5981651,28.9112658 L6.33302752,28.9112658 L6.33302752,29.6327848 L8.75889908,29.6327848 L8.75889908,52.1441772 C8.86602452,53.1227389 8.6112137,54.1067417 8.04330275,54.9075949 C7.56685703,55.4068949 6.89732987,55.6705935 6.21137615,55.6291139 C5.63302624,55.643764 5.07503183,55.4134854 4.67284404,54.9941772 C3.9,54.1932911 3.53504587,52.6853165 3.59229358,50.5135443 L3.59229358,50.3836709 L3.59229358,4.66822785 C3.59229358,4.50227848 3.77119266,0.699873418 5.85357798,0.699873418 C7.9359633,0.699873418 10.4262385,5.99582278 11.2777982,16.1187342 L11.2777982,17.7132911 L11.9933945,17.7132911 L11.9933945,0.468987342 L11.2777982,0.468987342 L11.2777982,1.87594937 L11.2133945,1.91924051 C11.0499544,2.03629284 10.8556364,2.10160161 10.6552294,2.10683544 C10.3831547,2.02455471 10.1366989,1.8729724 9.93963303,1.66670886 C8.84821016,0.680511158 7.45933294,0.0934222213 5.99669725,0 Z M62.5288073,55.8744304 L71.5310092,55.8744304 L71.5310092,55.1529114 L68.4181651,55.1529114 L68.4181651,33.326962 L72.2823853,33.326962 C73.6205397,33.4136522 74.9362355,32.9486688 75.9278816,32.038598 C76.9195278,31.1285273 77.5020857,29.8514121 77.5420183,28.5 L77.5420183,6.32772152 C77.5420183,0.988481013 70.7653211,0.887468354 70.7009174,0.887468354 L62.3284404,0.887468354 L62.3284404,1.60898734 L64.4752294,1.60898734 L64.4752294,55.174557 L62.5001835,55.174557 L62.5001835,55.8960759 L62.5288073,55.8744304 Z M39.9159633,55.8022785 L48.2097248,55.8022785 L48.2097248,55.0807595 L46.0056881,55.0807595 L40.0447706,0.916329114 L36.8031193,0.916329114 C36.5097248,3.75189873 31.5077064,52.1441772 31.5077064,52.8079747 C31.4678673,54.039086 30.495445,55.0321268 29.2750459,55.0879747 L28.852844,55.0879747 L28.852844,55.8094937 L34.6491743,55.8094937 L34.6491743,55.0879747 L34.3414679,55.0879747 C33.7490868,55.0633308 33.1931879,54.7927724 32.8055606,54.3404417 C32.4179332,53.888111 32.2330936,53.2942859 32.2948624,52.6997468 L34.2985321,33.1537975 L39.6941284,33.1537975 L42.0269725,55.0879747 L39.8801835,55.0879747 L39.8801835,55.8094937 L39.9159633,55.8022785 Z M68.6113761,32.4178481 L68.4754128,32.4178481 L68.4754128,1.66670886 L70.7581651,1.66670886 C73.4130275,1.66670886 73.8280734,5.22379747 73.8280734,5.2743038 L73.8280734,29.1998734 C73.8280734,32.3312658 71.4880734,32.4034177 71.4666055,32.4034177 L68.6042202,32.4034177 L68.6113761,32.4178481 Z M39.6798165,32.2807595 L34.4344954,32.2807595 L34.4344954,32.1292405 L37.0249541,7.51101266 L39.6798165,32.2807595 Z" id="Shape"></path>
            </g>
        </g>
    </g>
</svg>