<?xml version="1.0" encoding="UTF-8"?>
<svg width="19px" height="18px" viewBox="0 0 19 18" version="1.1" xmlns="http://www.w3.org/2000/svg" xmlns:xlink="http://www.w3.org/1999/xlink">
    <!-- Generator: Sketch 42 (36781) - http://www.bohemiancoding.com/sketch -->
    <title>Page 1</title>
    <desc>Created with Sketch.</desc>
    <defs></defs>
    <g id="Page-1" stroke="none" stroke-width="1" fill="none" fill-rule="evenodd">
        <g id="Desktop-HD-Copy" transform="translate(-739.000000, -2439.000000)" fill-rule="nonzero" fill="#F08585">
            <path d="M748.98747,2453.39193 C752.860861,2449.87203 754.073525,2448.62291 754.900494,2447.08396 C755.305423,2446.3304 755.5,2445.62357 755.5,2444.9 C755.5,2442.98828 754.011715,2441.5 752.1,2441.5 C751.024865,2441.5 749.959154,2442.0009 749.261352,2442.82034 C748.86207,2443.28922 748.13793,2443.28922 747.738648,2442.82034 C747.040846,2442.0009 745.975135,2441.5 744.9,2441.5 C742.988285,2441.5 741.5,2442.98828 741.5,2444.9 C741.5,2445.62669 741.696264,2446.33653 742.104787,2447.09353 C742.934232,2448.63052 744.155238,2449.88615 748.01318,2453.38452 L748.502556,2453.83002 L748.98747,2453.39193 Z M752.1,2439.5 C755.116285,2439.5 757.5,2441.88372 757.5,2444.9 C757.5,2445.97037 757.217077,2446.99813 756.662248,2448.03065 C755.679912,2449.85873 754.410875,2451.16592 750.330377,2454.87402 L749.170377,2455.92202 C748.788569,2456.26696 748.20732,2456.26586 747.82682,2455.91948 L746.668258,2454.86479 C742.60799,2451.18295 741.329524,2449.86823 740.344723,2448.04336 C739.785295,2447.00673 739.5,2445.97488 739.5,2444.9 C739.5,2441.88372 741.883715,2439.5 744.9,2439.5 C746.209054,2439.5 747.489895,2439.97014 748.5,2440.78369 C749.510105,2439.97014 750.790946,2439.5 752.1,2439.5 Z" id="Page-1"></path>
        </g>
    </g>
</svg>