<?xml version="1.0" encoding="UTF-8"?>
<svg width="220px" height="220px" viewBox="0 0 220 220" version="1.1" xmlns="http://www.w3.org/2000/svg" xmlns:xlink="http://www.w3.org/1999/xlink" style="background: #EBECED;">
    <!-- Generator: Sketch 42 (36781) - http://www.bohemiancoding.com/sketch -->
    <title>Artboard 4 Copy 4</title>
    <desc>Created with Sketch.</desc>
    <defs></defs>
    <g id="Page-1" stroke="none" stroke-width="1" fill="none" fill-rule="evenodd">
        <g id="Artboard-4-Copy-4">
            <g id="Page-1-Copy-3" transform="translate(33.000000, 49.000000)">
                <polygon id="Fill-1" fill="#EBECED" points="73.0504547 23.9965813 49.0972126 38.6831413 34.4168863 14.719728 58.3701284 0.033168"></polygon>
                <polygon id="Stroke-2" stroke="#4C586F" stroke-width="2.0625" stroke-linejoin="round" points="73.0504547 23.9965813 49.0972126 38.6831413 34.4168863 14.719728 58.3701284 0.033168"></polygon>
                <path d="M40.3590884,16.584192 L41.0036147,16.1890453" id="Stroke-4" stroke="#4C586F" stroke-width="2.0625" stroke-linecap="round" stroke-linejoin="round"></path>
                <path d="M45.2817821,13.5658667 L54.5513926,7.88336" id="Stroke-5" stroke="#4C586F" stroke-width="2.0625" stroke-linecap="round" stroke-linejoin="round" stroke-dasharray="1.669799941778183,5.009400022029876"></path>
                <path d="M56.6900632,6.57127467 L57.3345895,6.176128" id="Stroke-6" stroke="#4C586F" stroke-width="2.0625" stroke-linecap="round" stroke-linejoin="round"></path>
                <g id="Group-81" transform="translate(0.000000, 7.491024)">
                    <path d="M57.5267905,18.0580373 L56.3616853,17.8348373 C52.2301063,17.054464 49.5032642,16.5402773 48.3084116,14.5909973 C47.3350116,13.0004907 47.81758,10.9867307 49.4057589,10.0129173 C50.3031379,9.46401067 51.4203168,9.35323733 52.3871063,9.669024 C52.5457589,8.66379733 53.1506221,7.71809067 54.0480011,7.16753067 C55.63618,6.19371733 57.6490853,6.67649067 58.6224853,8.26699733 C59.8173379,10.2162773 59.0372958,12.8814507 57.8606221,16.9238507 L57.5267905,18.0580373 Z" id="Stroke-7" stroke="#4C586F" stroke-width="2.0625" stroke-linejoin="round" fill="#EBECED"></path>
                    <polygon id="Fill-9" fill="#EBECED" points="32.2859832 103.249509 24.7598989 76.171216 51.8266989 68.641936 59.3527832 95.7202293"></polygon>
                    <polygon id="Stroke-11" stroke="#4C586F" stroke-width="2.0625" stroke-linejoin="round" points="32.2859832 103.249509 24.7598989 76.171216 51.8266989 68.641936 59.3527832 95.7202293"></polygon>
                    <path d="M48.4002979,73.8438187 L48.6035716,74.5729387" id="Stroke-13" stroke="#4C586F" stroke-width="2.0625" stroke-linecap="round" stroke-linejoin="round"></path>
                    <path d="M49.9469958,79.4089387 L52.8589326,89.8877653" id="Stroke-15" stroke="#4C586F" stroke-width="2.0625" stroke-linecap="round" stroke-linejoin="round" stroke-dasharray="1.669799941778183,5.009400022029876"></path>
                    <path d="M53.5315537,92.3056 L53.7348274,93.03472" id="Stroke-17" stroke="#4C586F" stroke-width="2.0625" stroke-linecap="round" stroke-linejoin="round"></path>
                    <path d="M35.0632305,87.8910347 L35.5970305,86.831248 C37.4843358,83.071568 38.7287674,80.5899147 40.9317253,79.9781813 C42.7264832,79.4788747 44.5278516,80.497328 45.0269463,82.292848 C45.3095463,83.3079947 45.1079253,84.4124213 44.53942,85.2556213 C45.4615884,85.6838347 46.20362,86.5253813 46.48622,87.540528 C46.9853147,89.336048 45.9672937,91.1381813 44.1725358,91.637488 C41.9695779,92.2508747 39.6228411,90.7678347 36.06142,88.5242613 L35.0632305,87.8910347 Z" id="Stroke-19" stroke="#4C586F" stroke-width="2.0625" stroke-linejoin="round" fill="#EBECED"></path>
                    <polygon id="Fill-21" fill="#EBECED" points="139.805037 74.9568427 116.552511 59.1840427 132.318616 35.9216427 155.571142 51.6944427"></polygon>
                    <polygon id="Stroke-23" stroke="#4C586F" stroke-width="2.0625" stroke-linejoin="round" points="139.805037 74.9568427 116.552511 59.1840427 132.318616 35.9216427 155.571142 51.6944427"></polygon>
                    <path d="M133.070563,42.1057707 L133.696911,42.5306773" id="Stroke-25" stroke="#4C586F" stroke-width="2.0625" stroke-linecap="round" stroke-linejoin="round"></path>
                    <path d="M137.849478,45.347296 L146.848057,51.4514027" id="Stroke-27" stroke="#4C586F" stroke-width="2.0625" stroke-linecap="round" stroke-linejoin="round" stroke-dasharray="1.669799941778183,5.009400022029876"></path>
                    <path d="M148.924093,52.8593813 L149.55044,53.284288" id="Stroke-29" stroke="#4C586F" stroke-width="2.0625" stroke-linecap="round" stroke-linejoin="round"></path>
                    <path d="M131.988255,61.4496053 L131.710613,60.2955787 C130.717381,56.2085387 130.061286,53.5102987 131.343728,51.617232 C132.389844,50.074672 134.422581,49.6844853 135.964486,50.7310453 C136.835423,51.3212853 137.395665,52.2950987 137.508044,53.3052853 C138.488055,53.0341387 139.598623,53.1961653 140.46956,53.7864053 C142.011465,54.8329653 142.401486,56.8665653 141.357023,58.4091253 C140.072928,60.302192 137.326255,60.6907253 133.158318,61.2859253 L131.988255,61.4496053 Z" id="Stroke-31" stroke="#4C586F" stroke-width="2.0625" stroke-linejoin="round" fill="#EBECED"></path>
                    <polygon id="Fill-33" fill="#EBECED" points="39.3319779 39.9223787 22.6007358 62.5002987 0.0323989474 45.761952 16.7636411 23.184032"></polygon>
                    <polygon id="Stroke-35" stroke="#4C586F" stroke-width="2.0625" stroke-linejoin="round" points="39.3319779 39.9223787 22.6007358 62.5002987 0.0323989474 45.761952 16.7636411 23.184032"></polygon>
                    <path d="M6.24017895,45.2700853 L6.68969474,44.6616587" id="Stroke-37" stroke="#4C586F" stroke-width="2.0625" stroke-linecap="round" stroke-linejoin="round"></path>
                    <path d="M9.67880947,40.6300053 L16.15382,31.893792" id="Stroke-39" stroke="#4C586F" stroke-width="2.0625" stroke-linecap="round" stroke-linejoin="round" stroke-dasharray="1.669799941778183,5.009400022029876"></path>
                    <path d="M17.6474684,29.8767253 L18.0969842,29.2682987" id="Stroke-41" stroke="#4C586F" stroke-width="2.0625" stroke-linecap="round" stroke-linejoin="round"></path>
                    <path d="M25.5131684,47.166624 L24.3497158,47.3964373 C20.2247474,48.2164907 17.5045158,48.758784 15.6667895,47.3964373 C14.1711579,46.2870507 13.8670737,44.2385707 14.9759895,42.7406507 C15.6023368,41.8957973 16.5972211,41.3749973 17.6119368,41.3072107 C17.3838737,40.3152107 17.5904526,39.2124373 18.2184526,38.3659307 C19.3273684,36.869664 21.3749789,36.5654507 22.8722632,37.6748373 C24.7083368,39.037184 24.9793684,41.799904 25.3991368,45.9894507 L25.5131684,47.166624 Z" id="Stroke-43" stroke="#4C586F" stroke-width="2.0625" stroke-linejoin="round" fill="#EBECED"></path>
                    <polygon id="Fill-45" fill="#EBECED" points="91.24378 61.249056 63.3936326 64.944256 59.7016537 37.0822827 87.5501484 33.3870827"></polygon>
                    <polygon id="Stroke-47" stroke="#4C586F" stroke-width="2.0625" stroke-linejoin="round" points="91.24378 61.249056 63.3936326 64.944256 59.7016537 37.0822827 87.5501484 33.3870827"></polygon>
                    <path d="M64.3741389,41.199248 L65.1244337,41.100048" id="Stroke-49" stroke="#4C586F" stroke-width="2.0625" stroke-linecap="round" stroke-linejoin="round"></path>
                    <path d="M70.0976979,40.4400373 L80.8745084,39.009904" id="Stroke-51" stroke="#4C586F" stroke-width="2.0625" stroke-linecap="round" stroke-linejoin="round" stroke-dasharray="1.669799941778183,5.009400022029876"></path>
                    <path d="M83.3618842,38.6802293 L84.1121789,38.5810293" id="Stroke-53" stroke="#4C586F" stroke-width="2.0625" stroke-linecap="round" stroke-linejoin="round"></path>
                    <path d="M76.4266158,56.3641173 L75.4515632,55.687904 C71.9926053,53.2955307 69.7086684,51.7182507 69.4078895,49.4515307 C69.1633,47.603104 70.4226053,45.9596907 72.2685947,45.7149973 C73.3130579,45.5761173 74.3790053,45.9299307 75.1342579,46.6094507 C75.6862368,45.7563307 76.6216263,45.1363307 77.6660895,44.999104 C79.5120789,44.7527573 81.1564474,46.0125973 81.4010368,47.861024 C81.7018158,50.127744 79.9070579,52.245664 77.1917842,55.4630507 L76.4266158,56.3641173 Z" id="Stroke-55" stroke="#4C586F" stroke-width="2.0625" stroke-linejoin="round" fill="#EBECED"></path>
                    <polygon id="Fill-57" fill="#EBECED" points="104.285192 113.046667 79.5519074 99.7174933 92.8754232 74.9737067 117.608707 88.30288"></polygon>
                    <polygon id="Stroke-59" stroke="#4C586F" stroke-width="2.0625" stroke-linejoin="round" points="104.285192 113.046667 79.5519074 99.7174933 92.8754232 74.9737067 117.608707 88.30288"></polygon>
                    <path d="M94.2514042,81.049376 L94.9174147,81.4081493" id="Stroke-61" stroke="#4C586F" stroke-width="2.0625" stroke-linecap="round" stroke-linejoin="round"></path>
                    <path d="M99.3345684,83.788784 L108.904958,88.947184" id="Stroke-63" stroke="#4C586F" stroke-width="2.0625" stroke-linecap="round" stroke-linejoin="round" stroke-dasharray="1.669799941778183,5.009400022029876"></path>
                    <path d="M111.114526,90.137088 L111.780537,90.4958613" id="Stroke-65" stroke="#4C586F" stroke-width="2.0625" stroke-linecap="round" stroke-linejoin="round"></path>
                    <path d="M95.1378758,100.403131 L94.7445495,99.283824 C93.3414653,95.3174773 92.4143389,92.701904 93.4984653,90.688144 C94.3826232,89.046384 96.3657811,88.451184 98.0051916,89.3357173 C98.9323179,89.835024 99.5884126,90.7460107 99.8016021,91.7413173 C100.750213,91.3709707 101.870697,91.4189173 102.797823,91.918224 C104.438886,92.8027573 105.032181,94.7867573 104.149676,96.426864 C103.065549,98.440624 100.370107,99.105264 96.2864547,100.122064 L95.1378758,100.403131 Z" id="Stroke-67" stroke="#4C586F" stroke-width="2.0625" stroke-linejoin="round" fill="#EBECED"></path>
                    <polygon id="Fill-69" fill="#EBECED" points="127.623489 0.640832 129.515753 28.6830187 101.485468 30.574432 99.5932053 2.53389867"></polygon>
                    <polygon id="Stroke-71" stroke="#4C586F" stroke-width="2.0625" stroke-linejoin="round" points="127.623489 0.640832 129.515753 28.6830187 101.485468 30.574432 99.5932053 2.53389867"></polygon>
                    <path d="M105.893367,26.1747467 L105.842136,25.4208267" id="Stroke-73" stroke="#4C586F" stroke-width="2.0625" stroke-linecap="round" stroke-linejoin="round"></path>
                    <path d="M105.504503,20.4117227 L104.772387,9.560896" id="Stroke-75" stroke="#4C586F" stroke-width="2.0625" stroke-linecap="round" stroke-linejoin="round" stroke-dasharray="1.669799941778183,5.009400022029876"></path>
                    <path d="M104.603488,7.056096 L104.552257,6.302176" id="Stroke-77" stroke="#4C586F" stroke-width="2.0625" stroke-linecap="round" stroke-linejoin="round"></path>
                    <path d="M121.796476,15.1189067 L121.059402,16.04808 C118.449897,19.3481333 116.729507,21.5255733 114.448876,21.6793333 C112.589665,21.8049867 111.031234,20.44264 110.905634,18.5842933 C110.834571,17.5327733 111.255992,16.4911733 111.983149,15.7818933 C111.166749,15.17512 110.609813,14.1996533 110.538749,13.1497867 C110.413149,11.2897867 111.774918,9.73069333 113.634128,9.60504 C115.91476,9.45128 117.912792,11.3790667 120.947023,14.2972 L121.796476,15.1189067 Z" id="Stroke-79" stroke="#4C586F" stroke-width="2.0625" stroke-linejoin="round" fill="#EBECED"></path>
                </g>
            </g>
        </g>
    </g>
</svg>