<?xml version="1.0" encoding="UTF-8"?>
<svg width="220px" height="220px" viewBox="0 0 220 220" version="1.1" xmlns="http://www.w3.org/2000/svg" xmlns:xlink="http://www.w3.org/1999/xlink" style="background: #EBECED;">
    <!-- Generator: Sketch 42 (36781) - http://www.bohemiancoding.com/sketch -->
    <title>Artboard 4 Copy 7</title>
    <desc>Created with Sketch.</desc>
    <defs></defs>
    <g id="Page-1" stroke="none" stroke-width="1" fill="none" fill-rule="evenodd">
        <g id="Artboard-4-Copy-7">
            <g id="Page-1-Copy-3" transform="translate(79.000000, 52.000000)">
                <polygon id="Fill-1" fill="#EBECED" points="0.0256410256 100.708143 62.8424615 100.708143 62.8424615 16.3106986 0.0256410256 16.3106986"></polygon>
                <polygon id="Stroke-2" stroke="#4C586F" stroke-width="2.0625" stroke-linejoin="round" points="0.0256410256 100.708143 62.8408205 100.708143 62.8408205 16.3090458 0.0256410256 16.3090458"></polygon>
                <polygon id="Fill-4" fill="#EBECED" points="0.0256410256 16.2693792 62.8424615 16.2693792 62.8424615 0.0324902778 0.0256410256 0.0324902778"></polygon>
                <polygon id="Stroke-5" stroke="#4C586F" stroke-width="2.0625" stroke-linejoin="round" points="0.0256410256 16.2693792 62.8408205 16.2693792 62.8408205 0.0324902778 0.0256410256 0.0324902778"></polygon>
                <polygon id="Fill-7" fill="#EBECED" points="0.0256410256 116.945032 62.8424615 116.945032 62.8424615 100.708143 0.0256410256 100.708143"></polygon>
                <g id="Group-40" transform="translate(0.000000, 7.241907)">
                    <polygon id="Stroke-8" stroke="#4C586F" stroke-width="2.0625" stroke-linejoin="round" points="0.0256410256 109.703125 62.8408205 109.703125 62.8408205 93.4662361 0.0256410256 93.4662361"></polygon>
                    <path d="M34.1410872,101.584846 C34.1410872,103.090526 32.9283692,104.311929 31.4333949,104.311929 C29.9384205,104.311929 28.7257026,103.090526 28.7257026,101.584846 C28.7257026,100.079165 29.9384205,98.8577625 31.4333949,98.8577625 C32.9283692,98.8577625 34.1410872,100.079165 34.1410872,101.584846" id="Fill-10" fill="#4C586F"></path>
                    <g id="Group-13" transform="translate(26.897436, 0.000000)">
                        <path d="M0.500020513,0.909193056 L7.24299487,0.909193056" id="Fill-11" fill="#CBC5C1"></path>
                        <path d="M0.500020513,0.909193056 L7.24299487,0.909193056" id="Stroke-12" stroke="#4C586F" stroke-width="2.0526" stroke-linecap="round" stroke-linejoin="round"></path>
                    </g>
                    <path d="M16.1180308,77.7311306 L46.7494154,77.7311306" id="Stroke-14" stroke="#4C586F" stroke-width="2.0625" stroke-linecap="round" stroke-linejoin="round"></path>
                    <path d="M20.3236513,83.1190208 L42.5431385,83.1190208" id="Stroke-15" stroke="#4C586F" stroke-width="2.0625" stroke-linecap="round" stroke-linejoin="round"></path>
                    <g id="Group-18" transform="translate(18.051282, 19.833333)">
                        <polyline id="Fill-16" fill="#EBECED" points="4.09390769 10.7457 4.09390769 33.9143389 0.5296 33.9143389 0.5296 7.28478333 10.9189333 0.238991667 10.9189333 47.5497556 3.94457436 47.5497556 2.91893333 33.9143389"></polyline>
                        <polyline id="Stroke-17" stroke="#4C586F" stroke-width="2.0625" stroke-linejoin="round" points="4.09390769 10.7457 4.09390769 33.9143389 0.5296 33.9143389 0.5296 7.28478333 10.9189333 0.238991667 10.9189333 47.5497556 3.94457436 47.5497556 2.91893333 33.9143389"></polyline>
                    </g>
                    <g id="Group-21" transform="translate(33.461538, 19.833333)">
                        <polyline id="Fill-19" fill="#EBECED" points="7.26006154 10.7457 7.26006154 33.9143389 10.8243692 33.9143389 10.8243692 7.28478333 0.435035897 0.238991667 0.435035897 47.5497556 7.40939487 47.5497556 8.4350359 33.9143389"></polyline>
                        <polyline id="Stroke-20" stroke="#4C586F" stroke-width="2.0625" stroke-linejoin="round" points="7.26006154 10.7457 7.26006154 33.9143389 10.8243692 33.9143389 10.8243692 7.28478333 0.435035897 0.238991667 0.435035897 47.5497556 7.40939487 47.5497556 8.4350359 33.9143389"></polyline>
                    </g>
                    <g id="Group-24" transform="translate(28.538462, 19.833333)">
                        <path d="M0.432410256,0.239322222 L5.35712821,0.239322222" id="Fill-22" fill="#CBC5C1"></path>
                        <path d="M0.432410256,0.239322222 L5.35712821,0.239322222" id="Stroke-23" stroke="#4C586F" stroke-width="2.0625" stroke-linejoin="round"></path>
                    </g>
                    <g id="Group-27" transform="translate(28.538462, 62.805556)">
                        <path d="M0.432410256,0.9624125 L5.35712821,0.9624125" id="Fill-25" fill="#CBC5C1"></path>
                        <path d="M0.432410256,0.9624125 L5.35712821,0.9624125" id="Stroke-26" stroke="#4C586F" stroke-width="2.0625" stroke-linejoin="round"></path>
                    </g>
                    <g id="Group-30" transform="translate(20.333333, 61.152778)">
                        <path d="M1.26309744,0.911176389 L4.20217436,0.911176389" id="Fill-28" fill="#CBC5C1"></path>
                        <path d="M1.26309744,0.911176389 L4.20217436,0.911176389" id="Stroke-29" stroke="#4C586F" stroke-width="2.0625" stroke-linejoin="round"></path>
                    </g>
                    <g id="Group-33" transform="translate(36.743590, 61.152778)">
                        <path d="M1.59392821,0.911176389 L4.53300513,0.911176389" id="Fill-31" fill="#CBC5C1"></path>
                        <path d="M1.59392821,0.911176389 L4.53300513,0.911176389" id="Stroke-32" stroke="#4C586F" stroke-width="2.0625" stroke-linejoin="round"></path>
                    </g>
                    <path d="M26.7005128,42.6370389 C26.7005128,43.2006361 26.2475897,43.6568028 25.688,43.6568028 C25.1284103,43.6568028 24.6754872,43.2006361 24.6754872,42.6370389 C24.6754872,42.0734417 25.1284103,41.617275 25.688,41.617275 C26.2475897,41.617275 26.7005128,42.0734417 26.7005128,42.6370389" id="Fill-34" fill="#4C586F"></path>
                    <path d="M26.7005128,38.5665778 C26.7005128,39.130175 26.2475897,39.5863417 25.688,39.5863417 C25.1284103,39.5863417 24.6754872,39.130175 24.6754872,38.5665778 C24.6754872,38.0029806 25.1284103,37.5468139 25.688,37.5468139 C26.2475897,37.5468139 26.7005128,38.0029806 26.7005128,38.5665778" id="Fill-35" fill="#4C586F"></path>
                    <path d="M26.7005128,46.7076653 C26.7005128,47.2712625 26.2475897,47.7274292 25.688,47.7274292 C25.1284103,47.7274292 24.6754872,47.2712625 24.6754872,46.7076653 C24.6754872,46.1440681 25.1284103,45.6879014 25.688,45.6879014 C26.2475897,45.6879014 26.7005128,46.1440681 26.7005128,46.7076653" id="Fill-36" fill="#4C586F"></path>
                    <g id="Group-39" transform="translate(28.538462, 23.138889)">
                        <path d="M0.432410256,0.472694444 L5.35712821,0.472694444" id="Fill-37" fill="#CBC5C1"></path>
                        <path d="M0.432410256,0.472694444 L5.35712821,0.472694444" id="Stroke-38" stroke="#4C586F" stroke-width="2.0625" stroke-linejoin="round"></path>
                    </g>
                </g>
            </g>
        </g>
    </g>
</svg>