<?xml version="1.0" encoding="UTF-8"?>
<svg width="220px" height="220px" viewBox="0 0 220 220" version="1.1" xmlns="http://www.w3.org/2000/svg" xmlns:xlink="http://www.w3.org/1999/xlink" style="background: #EBECED;">
    <!-- Generator: Sketch 42 (36781) - http://www.bohemiancoding.com/sketch -->
    <title>Artboard 4 Copy 6</title>
    <desc>Created with Sketch.</desc>
    <defs></defs>
    <g id="Page-1" stroke="none" stroke-width="1" fill="none" fill-rule="evenodd">
        <g id="Artboard-4-Copy-6">
            <g id="Page-1" transform="translate(40.000000, 56.000000)">
                <path d="M12.8278573,3.05976692 C13.3742459,18.2389556 25.9328533,30.4222669 41.2926093,30.4222669 C56.6513021,30.4222669 69.2109029,18.2384265 69.7573583,3.05977321 L12.8278573,3.05976692 Z M71.8383942,2.02851692 C71.8383942,18.8232554 58.1353132,32.4847669 41.2926093,32.4847669 C24.4488152,32.4847669 10.7468244,18.8238147 10.7468244,2.02851692 C10.7468244,1.45897327 11.2085308,0.997266923 11.7780744,0.997266923 L70.8071442,0.997266923 C71.3766878,0.997266923 71.8383942,1.45897327 71.8383942,2.02851692 Z" id="Stroke-1" fill="#4C586F" fill-rule="nonzero"></path>
                <path d="M1.03197674,83.3377515 C0.462433096,83.3377515 0.000726744186,82.8760452 0.000726744186,82.3065015 L0.000726744186,2.02851692 C0.000726744186,1.45897327 0.462433096,0.997266923 1.03197674,0.997266923 L81.5542326,0.997266923 C82.1237762,0.997266923 82.5854826,1.45897327 82.5854826,2.02851692 L82.5854826,82.3065015 C82.5854826,82.8760452 82.1237762,83.3377515 81.5542326,83.3377515 L1.03197674,83.3377515 Z M80.5229826,81.2752515 L80.5229826,3.05976692 L2.06322674,3.05976692 L2.06322674,81.2752515 L80.5229826,81.2752515 Z" id="Stroke-3" fill="#4C586F" fill-rule="nonzero"></path>
                <path d="M64.3272221,2.02884615 C64.3272221,14.7101384 54.0157914,24.9902885 41.2927744,24.9902885 C28.5697574,24.9902885 18.2583267,14.7101384 18.2583267,2.02884615 L16.1958267,2.02884615 C16.1958267,15.8506308 27.4320705,27.0527885 41.2927744,27.0527885 C55.1534783,27.0527885 66.3897221,15.8506308 66.3897221,2.02884615 L64.3272221,2.02884615 Z" id="Stroke-5" fill="#4C586F" fill-rule="nonzero"></path>
                <polygon id="Fill-6" fill="#EBECED" points="59.6069767 98.5277015 140.129233 98.5277015 140.129233 39.3764554 59.6069767 39.3764554"></polygon>
                <path d="M59.6069767,99.5589515 C59.0374331,99.5589515 58.5757267,99.0972452 58.5757267,98.5277015 L58.5757267,39.3764554 C58.5757267,38.8069117 59.0374331,38.3452054 59.6069767,38.3452054 L140.129233,38.3452054 C140.698776,38.3452054 141.160483,38.8069117 141.160483,39.3764554 L141.160483,98.5277015 C141.160483,99.0972452 140.698776,99.5589515 140.129233,99.5589515 L59.6069767,99.5589515 Z M60.6382267,97.4964515 L139.097983,97.4964515 L139.097983,40.4077054 L60.6382267,40.4077054 L60.6382267,97.4964515 Z" id="Stroke-7" fill="#4C586F" fill-rule="nonzero"></path>
                <path d="M59.6069767,51.7494415 L140.129233,51.7494415" id="Fill-8" fill="#CBC5C1"></path>
                <polygon id="Stroke-9" fill="#4C586F" fill-rule="nonzero" points="59.6069767 52.7806915 140.129233 52.7806915 140.129233 50.7181915 59.6069767 50.7181915"></polygon>
                <path d="M103.878779,45.4117492 C103.878779,46.9113954 102.65857,48.1279031 101.15436,48.1279031 C99.6501512,48.1279031 98.4299419,46.9113954 98.4299419,45.4117492 C98.4299419,43.9121031 99.6501512,42.6955954 101.15436,42.6955954 C102.65857,42.6955954 103.878779,43.9121031 103.878779,45.4117492" id="Fill-11" fill="#4C586F"></path>
                <g id="Group-14" transform="translate(93.116279, 39.307317)">
                    <path d="M1.56766977,0.0686446154 L1.56766977,59.1441677" id="Fill-12" fill="#CBC5C1"></path>
                    <polygon id="Stroke-13" fill="#4C586F" fill-rule="nonzero" points="0.536419767 0.0686446154 0.536419767 59.1441677 2.59891977 59.1441677 2.59891977 0.0686446154"></polygon>
                </g>
                <path d="M71.4264953,68.4990569 L59.6074721,68.4990569 L59.6074721,51.7494415 L86.6997512,51.7494415 L86.6997512,53.2721338 C86.6997512,61.6823338 79.862286,68.4990569 71.4264953,68.4990569" id="Fill-15" fill="#EBECED"></path>
                <path d="M71.4264953,67.4678069 C79.2934426,67.4678069 85.6685012,61.1120876 85.6685012,53.2721338 L85.6685012,52.7806915 L60.6387221,52.7806915 L60.6387221,67.4678069 L71.4264953,67.4678069 Z M71.4264953,69.5303069 L59.6074721,69.5303069 C59.0379284,69.5303069 58.5762221,69.0686006 58.5762221,68.4990569 L58.5762221,51.7494415 C58.5762221,51.1798979 59.0379284,50.7181915 59.6074721,50.7181915 L86.6997512,50.7181915 C87.2692948,50.7181915 87.7310012,51.1798979 87.7310012,51.7494415 L87.7310012,53.2721338 C87.7310012,62.25258 80.4311295,69.5303069 71.4264953,69.5303069 Z" id="Stroke-16" fill="#4C586F" fill-rule="nonzero"></path>
                <path d="M128.309053,68.4990569 L140.128077,68.4990569 L140.128077,51.7494415 L113.035798,51.7494415 L113.035798,53.2721338 C113.035798,61.6823338 119.873263,68.4990569 128.309053,68.4990569" id="Fill-17" fill="#EBECED"></path>
                <path d="M128.309053,69.5303069 C119.304419,69.5303069 112.004548,62.25258 112.004548,53.2721338 L112.004548,51.7494415 C112.004548,51.1798979 112.466254,50.7181915 113.035798,50.7181915 L140.128077,50.7181915 C140.69762,50.7181915 141.159327,51.1798979 141.159327,51.7494415 L141.159327,68.4990569 C141.159327,69.0686006 140.69762,69.5303069 140.128077,69.5303069 L128.309053,69.5303069 Z M114.067048,53.2721338 C114.067048,61.1120876 120.442106,67.4678069 128.309053,67.4678069 L139.096827,67.4678069 L139.096827,52.7806915 L114.067048,52.7806915 L114.067048,53.2721338 Z" id="Stroke-18" fill="#4C586F" fill-rule="nonzero"></path>
                <polygon id="Fill-19" fill="#EBECED" points="126.129023 55.8231785 131.123791 55.8231785 131.123791 39.3748092 126.129023 39.3748092"></polygon>
                <polygon id="Stroke-20" stroke="#4C586F" stroke-width="2.0625" stroke-linejoin="round" points="126.129023 55.8231785 131.123791 55.8231785 131.123791 39.3748092 126.129023 39.3748092"></polygon>
                <polygon id="Fill-21" fill="#EBECED" points="68.6124186 55.8231785 73.607186 55.8231785 73.607186 39.3748092 68.6124186 39.3748092"></polygon>
                <polygon id="Stroke-22" stroke="#4C586F" stroke-width="2.0625" stroke-linejoin="round" points="68.6124186 55.8231785 73.607186 55.8231785 73.607186 39.3748092 68.6124186 39.3748092"></polygon>
                <polygon id="Fill-23" fill="#EBECED" points="94.6842791 82.0793323 103.879605 82.0793323 103.879605 51.7489477 94.6842791 51.7489477"></polygon>
                <path d="M94.6842791,83.1105823 C94.1147354,83.1105823 93.6530291,82.648876 93.6530291,82.0793323 L93.6530291,51.7489477 C93.6530291,51.179404 94.1147354,50.7176977 94.6842791,50.7176977 L103.879605,50.7176977 C104.449148,50.7176977 104.910855,51.179404 104.910855,51.7489477 L104.910855,82.0793323 C104.910855,82.648876 104.449148,83.1105823 103.879605,83.1105823 L94.6842791,83.1105823 Z M102.848355,81.0480823 L102.848355,52.7801977 L95.7155291,52.7801977 L95.7155291,81.0480823 L102.848355,81.0480823 Z" id="Stroke-24" fill="#4C586F" fill-rule="nonzero"></path>
                <path d="M104.817105,19.8853096 C104.450271,20.6898968 103.307287,20.6898968 102.940453,19.8853096 L100.830532,15.2575652 L96.1880022,13.1537258 C95.3805497,12.7878153 95.3805497,11.6410308 96.1880022,11.2751203 L100.830532,9.17128097 L102.940453,4.54353658 C103.307287,3.73894935 104.450271,3.73894935 104.817105,4.54353658 L106.927026,9.17128097 L111.569556,11.2751203 C112.377008,11.6410308 112.377008,12.7878153 111.569556,13.1537258 L106.927026,15.2575652 L104.817105,19.8853096 Z M105.210802,14.050075 C105.314237,13.8232079 105.496364,13.6414975 105.723467,13.5385819 L108.645481,12.2144231 L105.723467,10.8902643 C105.496364,10.7873486 105.314237,10.6056383 105.210802,10.3787711 L103.878779,7.45721047 L102.546756,10.3787711 C102.443321,10.6056383 102.261194,10.7873486 102.034091,10.8902643 L99.1120773,12.2144231 L102.034091,13.5385819 C102.261194,13.6414975 102.443321,13.8232079 102.546756,14.050075 L103.878779,16.9716357 L105.210802,14.050075 Z" id="Stroke-25" fill="#4C586F" fill-rule="nonzero"></path>
                <path d="M44.6140585,106.198588 C44.2472242,107.003175 43.1042409,107.003175 42.7374066,106.198588 L40.6274858,101.570844 L35.9849557,99.4670043 C35.1775031,99.1010938 35.1775031,97.9543093 35.9849557,97.5883988 L40.6274858,95.4845594 L42.7374066,90.856815 C43.1042409,90.0522278 44.2472242,90.0522278 44.6140585,90.856815 L46.7239793,95.4845594 L51.3665094,97.5883988 C52.173962,97.9543093 52.173962,99.1010938 51.3665094,99.4670043 L46.7239793,101.570844 L44.6140585,106.198588 Z M45.0077555,100.363353 C45.1111907,100.136486 45.2933175,99.954776 45.5204208,99.8518603 L48.4424344,98.5277015 L45.5204208,97.2035427 C45.2933175,97.1006271 45.1111907,96.9189168 45.0077555,96.6920496 L43.6757326,93.7704889 L42.3437096,96.6920496 C42.2402744,96.9189168 42.0581477,97.1006271 41.8310443,97.2035427 L38.9090308,98.5277015 L41.8310443,99.8518603 C42.0581477,99.954776 42.2402744,100.136486 42.3437096,100.363353 L43.6757326,103.284914 L45.0077555,100.363353 Z" id="Stroke-26" fill="#4C586F" fill-rule="nonzero"></path>
                <polygon id="Fill-27" fill="#4C586F" points="116.828684 30.6571077 118.281707 27.4701538 121.478358 26.0215385 118.281707 24.5729231 116.828684 21.3859692 115.37566 24.5729231 112.179009 26.0215385 115.37566 27.4701538"></polygon>
                <polygon id="Fill-28" fill="#4C586F" points="21.8767512 100.555763 23.3297744 97.3688092 26.5264256 95.9201938 23.3297744 94.4715785 21.8767512 91.2846246 20.4237279 94.4715785 17.2270767 95.9201938 20.4237279 97.3688092"></polygon>
            </g>
        </g>
    </g>
</svg>