<?xml version="1.0" encoding="UTF-8"?>
<svg width="220px" height="220px" viewBox="0 0 220 220" version="1.1" xmlns="http://www.w3.org/2000/svg" xmlns:xlink="http://www.w3.org/1999/xlink" style="background: #EBECED;">
    <!-- Generator: Sketch 42 (36781) - http://www.bohemiancoding.com/sketch -->
    <title>Artboard 4 Copy 5</title>
    <desc>Created with Sketch.</desc>
    <defs></defs>
    <g id="Page-1" stroke="none" stroke-width="1" fill="none" fill-rule="evenodd">
        <g id="Artboard-4-Copy-5">
            <g id="Page-1-Copy-3" transform="translate(59.000000, 50.000000)">
                <polygon id="Fill-1" fill="#4C586F" points="40.9235556 106.560148 62.175873 106.560148 62.175873 81.9238092 40.9235556 81.9238092"></polygon>
                <polygon id="Stroke-2" stroke="#4C586F" stroke-width="2.0625" stroke-linecap="round" stroke-linejoin="round" points="8.4111746 106.663855 94.567746 106.663855 94.567746 53.9490708 8.4111746 53.9490708"></polygon>
                <path d="M73.033473,72.4329092 L73.033473,64.20214" id="Stroke-4" stroke="#4C586F" stroke-width="2.0625" stroke-linecap="round" stroke-linejoin="round"></path>
                <path d="M70.5115556,65.4881154 L73.0339683,62.9168231" id="Stroke-5" stroke="#4C586F" stroke-width="2.0625" stroke-linecap="round" stroke-linejoin="round"></path>
                <path d="M75.5555556,65.4881154 L73.0331429,62.9168231" id="Stroke-6" stroke="#4C586F" stroke-width="2.0625" stroke-linecap="round" stroke-linejoin="round"></path>
                <path d="M82.1128381,72.4329092 L82.1128381,64.20214" id="Stroke-7" stroke="#4C586F" stroke-width="2.0625" stroke-linecap="round" stroke-linejoin="round"></path>
                <path d="M79.5909206,65.4881154 L82.1133333,62.9168231" id="Stroke-8" stroke="#4C586F" stroke-width="2.0625" stroke-linecap="round" stroke-linejoin="round"></path>
                <path d="M84.6349206,65.4881154 L82.1125079,62.9168231" id="Stroke-9" stroke="#4C586F" stroke-width="2.0625" stroke-linecap="round" stroke-linejoin="round"></path>
                <polygon id="Stroke-10" stroke="#4C586F" stroke-width="2.0625" stroke-linejoin="round" points="28.6662476 25.4429538 30.9360889 20.4633385 35.9297397 18.1998769 30.9360889 15.9364154 28.6662476 10.9568 26.3964063 15.9364154 21.4027556 18.1998769 26.3964063 20.4633385"></polygon>
                <polygon id="Fill-11" fill="#4C586F" points="51.0391238 28.7505708 52.4918222 25.5636169 55.6877587 24.1150015 52.4918222 22.6663862 51.0391238 19.4794323 49.5864254 22.6663862 46.3904889 24.1150015 49.5864254 25.5636169"></polygon>
                <polygon id="Fill-12" fill="#4C586F" points="59.0436571 -0.000329230769 57.5909587 3.18662462 54.3950222 4.63524 57.5909587 6.08385538 59.0436571 9.27080923 60.4963556 6.08385538 63.6922921 4.63524 60.4963556 3.18662462"></polygon>
                <polygon id="Stroke-13" stroke="#4C586F" stroke-width="2.0625" stroke-linejoin="round" points="73.4169524 24.1150015 74.8696508 20.9280477 78.0655873 19.4794323 74.8696508 18.0308169 73.4169524 14.8438631 71.964254 18.0308169 68.7683175 19.4794323 71.964254 20.9280477"></polygon>
                <polygon id="Stroke-15" stroke="#4C586F" stroke-width="2.0625" stroke-linecap="round" stroke-linejoin="round" points="51.4899556 37.1005215 0.031415873 37.1005215 8.41249524 53.9505523 51.4899556 53.9505523 94.5674159 53.9505523 102.948495 37.1005215"></polygon>
            </g>
        </g>
    </g>
</svg>