<?xml version="1.0" encoding="UTF-8"?>
<svg width="48px" height="48px" viewBox="0 0 48 48" version="1.1" xmlns="http://www.w3.org/2000/svg" xmlns:xlink="http://www.w3.org/1999/xlink">
    <!-- Generator: Sketch 42 (36781) - http://www.bohemiancoding.com/sketch -->
    <title>facebook-icon copy 11</title>
    <desc>Created with Sketch.</desc>
    <defs></defs>
    <g id="Page-1" stroke="none" stroke-width="1" fill="none" fill-rule="evenodd">
        <g id="facebook-icon-copy-11" fill="#4C586F">
            <g id="Group-4" transform="translate(11.000000, 11.000000)">
                <path d="M12.9821112,0 C9.45636274,0 9.01426568,0.0149444161 7.62963976,0.0781232236 C6.24779659,0.141147434 5.30413401,0.360624221 4.47832619,0.681516908 C3.6246393,1.01328295 2.90065964,1.45718364 2.1789474,2.17889587 C1.45723517,2.90065964 1.01333448,3.6246393 0.681568441,4.47832619 C0.360624221,5.30408248 0.141198966,6.24779659 0.0781232236,7.62958823 C0.0149444161,9.01426568 0,9.45636274 0,12.9821112 C0,16.5078082 0.0149444161,16.9499052 0.0781232236,18.3345827 C0.141198966,19.7163743 0.360624221,20.6600884 0.681568441,21.4858447 C1.01333448,22.3395316 1.45723517,23.0635113 2.1789474,23.7852751 C2.90065964,24.5069873 3.6246393,24.950888 4.47832619,25.282654 C5.30413401,25.6035467 6.24779659,25.8230235 7.62963976,25.8860477 C9.01426568,25.949278 9.45636274,25.9641709 12.9821112,25.9641709 C16.5078597,25.9641709 16.9499052,25.949278 18.3345827,25.8860477 C19.7164259,25.8230235 20.6600884,25.6035467 21.4858963,25.282654 C22.3395832,24.950888 23.0635628,24.5069873 23.7852751,23.7852751 C24.5069873,23.0635113 24.950888,22.3395316 25.282654,21.4858447 C25.6035982,20.6600884 25.8230235,19.7163743 25.8860992,18.3345827 C25.949278,16.9499052 25.9641709,16.5078082 25.9641709,12.9821112 C25.9641709,9.45636274 25.949278,9.01426568 25.8860992,7.62958823 C25.8230235,6.24779659 25.6035982,5.30408248 25.282654,4.47832619 C24.950888,3.6246393 24.5069873,2.90065964 23.7852751,2.17889587 C23.0635628,1.45718364 22.3395832,1.01328295 21.4858963,0.681516908 C20.6600884,0.360624221 19.7164259,0.141147434 18.3345827,0.0781232236 C16.9499052,0.0149444161 16.5078597,0 12.9821112,0 M12.9821112,2.33911032 C16.4484943,2.33911032 16.8590535,2.35235416 18.227962,2.41481152 C19.4937025,2.47252788 20.1810941,2.68401714 20.6385994,2.86180416 C21.2445182,3.09730754 21.6770302,3.37862329 22.1312889,3.83293354 C22.5855476,4.28719226 22.8669149,4.71965274 23.1023668,5.32562305 C23.2801538,5.78307678 23.491643,6.47046839 23.5494109,7.73620891 C23.6118683,9.10511743 23.6250606,9.51572814 23.6250606,12.9821112 C23.6250606,16.4484428 23.6118683,16.8590535 23.5494109,18.227962 C23.491643,19.4937025 23.2801538,20.1810941 23.1023668,20.6385479 C22.8669149,21.2445182 22.5855476,21.6769787 22.1312889,22.1312374 C21.6770302,22.5855476 21.2445182,22.8668634 20.6385994,23.1023668 C20.1810941,23.2801538 19.4937025,23.491643 18.227962,23.5493594 C16.8592596,23.6118168 16.4487004,23.6250606 12.9821112,23.6250606 C9.51552201,23.6250606 9.10496283,23.6118168 7.73626044,23.5493594 C6.47051993,23.491643 5.78307678,23.2801538 5.32562305,23.1023668 C4.71970428,22.8668634 4.28719226,22.5855476 3.83293354,22.1312374 C3.37867483,21.6769787 3.09730754,21.2445182 2.86180416,20.6385479 C2.68406867,20.1810941 2.47257942,19.4937025 2.41481152,18.227962 C2.35235416,16.8590535 2.33916185,16.4484428 2.33916185,12.9821112 C2.33916185,9.51572814 2.35235416,9.10511743 2.41481152,7.73620891 C2.47257942,6.47046839 2.68406867,5.78307678 2.86180416,5.32562305 C3.09730754,4.71965274 3.37867483,4.28719226 3.83293354,3.83293354 C4.28719226,3.37862329 4.71970428,3.09730754 5.32562305,2.86180416 C5.78307678,2.68401714 6.47051993,2.47252788 7.73620891,2.41481152 C9.10516896,2.35235416 9.51572814,2.33911032 12.9821112,2.33911032" id="Fill-1"></path>
                <path d="M13.1664979,17.493834 C10.7765766,17.493834 8.83911032,15.5564192 8.83911032,13.1664979 C8.83911032,10.776525 10.7765766,8.83911032 13.1664979,8.83911032 C15.5564192,8.83911032 17.493834,10.776525 17.493834,13.1664979 C17.493834,15.5564192 15.5564192,17.493834 13.1664979,17.493834 M13.1664979,6.5 C9.4847091,6.5 6.5,9.48465756 6.5,13.1664979 C6.5,16.8482867 9.4847091,19.8329443 13.1664979,19.8329443 C16.8482867,19.8329443 19.8329958,16.8482867 19.8329958,13.1664979 C19.8329958,9.48465756 16.8482867,6.5 13.1664979,6.5" id="Fill-4"></path>
                <path d="M21.8032046,6.43282655 C21.8032046,7.29321266 21.1057127,7.9906531 20.2453781,7.9906531 C19.384992,7.9906531 18.6875,7.29321266 18.6875,6.43282655 C18.6875,5.57244044 19.384992,4.875 20.2453781,4.875 C21.1057127,4.875 21.8032046,5.57244044 21.8032046,6.43282655" id="Fill-6"></path>
            </g>
        </g>
    </g>
</svg>