<?xml version="1.0" encoding="UTF-8"?>
<svg width="86px" height="20px" viewBox="0 0 86 20" version="1.1" xmlns="http://www.w3.org/2000/svg" xmlns:xlink="http://www.w3.org/1999/xlink">
    <!-- Generator: Sketch 42 (36781) - http://www.bohemiancoding.com/sketch -->
    <title>garment</title>
    <desc>Created with Sketch.</desc>
    <defs></defs>
    <g id="Page-1" stroke="none" stroke-width="1" fill="none" fill-rule="evenodd">
        <g id="iPhone-7-Copy-7" transform="translate(-24.000000, -25.000000)" fill="#4C586F">
            <path d="M24.966,37.528 C24.966,36.125 26.875,35.481 27.772,35.182 C26.001,34.791 24.598,33.71 24.598,31.847 C24.598,29.455 26.967,28.19 29.497,28.19 C31.015,28.19 31.636,28.65 32.993,28.65 L34.097,28.65 C34.833,28.65 35.615,28.351 35.615,28.351 L35.339,30.329 L34.557,30.329 C34.143,30.329 33.867,30.283 33.775,30.283 C33.867,30.352 34.442,30.812 34.442,31.916 C34.442,34.147 32.073,35.366 29.474,35.366 C29.106,35.366 28.738,35.343 28.393,35.297 C28.301,35.458 28.186,35.757 28.186,35.964 C28.186,37.413 35.316,36.401 35.316,40.081 C35.316,42.611 32.51,44.451 29.129,44.451 C27.128,44.451 24.322,43.462 24.322,41.783 C24.322,40.564 25.771,39.897 27.082,39.414 C25.863,39.023 24.966,38.494 24.966,37.528 Z M29.037,39.92 C28.623,39.828 28.209,39.736 27.795,39.621 C27.519,39.989 27.22,40.541 27.22,41.231 C27.22,42.519 28.163,43.255 29.681,43.255 C30.785,43.255 32.418,42.933 32.418,41.576 C32.418,40.564 31.176,40.38 29.037,39.92 Z M29.52,34.239 C30.67,34.239 31.038,33.204 31.038,31.985 C31.038,30.697 30.624,29.317 29.428,29.317 C28.347,29.317 27.979,30.467 27.979,31.778 C27.979,33.135 28.37,34.239 29.52,34.239 Z M35.914,36.562 C35.914,34.193 38.582,33.089 40.905,32.744 L41.71,32.629 C41.71,30.766 41.733,29.363 40.721,29.363 C39.548,29.363 38.651,31.962 38.651,31.962 L37.409,31.962 L36.834,29.777 C36.834,29.777 38.789,28.19 42.078,28.19 C44.631,28.19 45.252,29.133 45.252,31.479 L45.252,36.585 C45.252,37.252 45.367,37.666 45.758,37.666 C46.103,37.666 46.494,37.413 46.494,37.413 L46.908,38.103 C46.908,38.103 45.804,39.276 43.941,39.276 C42.584,39.276 41.779,38.701 41.779,37.781 L41.779,37.528 C41.779,37.528 40.606,39.276 38.789,39.276 C37.524,39.276 35.914,38.563 35.914,36.562 Z M39.479,35.872 C39.479,36.769 39.939,37.183 40.56,37.183 C40.905,37.183 41.296,37.045 41.687,36.815 L41.687,33.825 L41.112,33.94 C39.985,34.17 39.479,34.768 39.479,35.872 Z M47.575,39.069 L54.061,38.931 L54.153,38.172 L52.152,37.965 C52.152,37.965 52.267,37.413 52.267,36.723 L52.267,31.433 C52.267,31.433 53.026,30.927 53.647,30.927 C54.245,30.927 54.406,31.433 55.257,31.433 C56.407,31.433 56.959,30.513 56.959,29.754 C56.959,29.133 56.637,28.19 55.418,28.19 C53.578,28.19 52.382,30.191 52.06,30.674 C52.06,29.179 52.405,27.937 52.405,27.937 L52.336,27.868 C52.336,27.868 50.174,28.673 47.276,29.087 L47.276,29.892 L48.012,29.892 C48.679,29.892 48.702,30.467 48.702,31.387 L48.702,36.723 C48.702,37.551 48.357,38.103 47.575,38.218 L47.575,39.069 Z M57.465,39.069 L63.169,38.931 L63.307,38.057 L62.042,37.919 C62.042,37.919 62.157,37.413 62.157,36.723 L62.157,30.996 C62.548,30.766 63.261,30.582 63.859,30.582 C64.641,30.582 65.147,30.766 65.147,32.422 L65.147,36.723 C65.147,37.551 64.871,38.103 64.365,38.218 L64.365,39.069 L69.724,38.931 L69.862,38.057 L68.597,37.919 C68.597,37.919 68.712,37.413 68.712,36.723 L68.712,31.387 C68.712,30.812 69.563,30.582 70.299,30.582 C71.311,30.582 71.679,30.858 71.679,32.422 L71.679,36.723 C71.679,37.551 71.403,38.103 70.874,38.218 L70.874,39.069 L76.693,38.931 L76.785,38.172 L75.129,37.919 C75.129,37.919 75.244,37.413 75.244,36.723 L75.244,31.295 C75.244,29.11 73.956,28.19 72.277,28.19 C70.529,28.19 69.517,29.133 68.62,30.099 C68.206,28.719 66.987,28.19 65.722,28.19 C63.905,28.19 62.709,29.386 61.973,30.352 C62.111,28.305 62.318,27.937 62.318,27.937 L62.249,27.868 C62.249,27.868 60.064,28.627 57.143,29.064 L57.143,29.869 L57.902,29.869 C58.569,29.869 58.592,30.444 58.592,31.364 L58.592,36.723 C58.592,37.551 58.27,38.103 57.465,38.218 L57.465,39.069 Z M77.406,33.917 C77.406,30.766 79.775,28.19 82.88,28.19 C85.042,28.19 86.974,29.363 87.066,32.445 C87.066,32.445 85.755,32.905 85.295,32.974 L80.948,33.641 L80.764,33.94 C81.086,35.527 82.006,36.884 84.191,36.884 C85.709,36.884 86.767,36.079 86.767,36.079 L87.066,36.861 C87.066,36.861 85.801,39.276 82.811,39.276 C79.361,39.276 77.406,36.677 77.406,33.917 Z M82.328,29.432 C81.339,29.432 80.672,30.812 80.649,32.445 L83.777,32.054 C83.777,32.054 83.754,29.432 82.328,29.432 Z M88.193,39.069 L93.897,38.931 L93.989,38.172 L92.77,37.942 C92.77,37.942 92.885,37.413 92.885,36.723 L92.885,30.996 C93.299,30.789 94.035,30.582 94.679,30.582 C95.553,30.582 95.852,30.858 95.852,32.422 L95.852,36.723 C95.852,37.551 95.622,38.103 94.978,38.218 L94.978,39.069 L100.866,38.931 L100.958,38.172 L99.302,37.942 C99.302,37.942 99.417,37.413 99.417,36.723 L99.417,31.295 C99.417,29.064 98.198,28.19 96.611,28.19 C94.748,28.19 93.46,29.386 92.678,30.352 C92.839,28.305 93.046,27.937 93.046,27.937 L92.977,27.868 C92.977,27.868 90.792,28.627 87.894,29.064 L87.894,29.869 L88.63,29.869 C89.297,29.869 89.32,30.444 89.32,31.364 L89.32,36.723 C89.32,37.551 88.975,38.103 88.193,38.218 L88.193,39.069 Z M102.775,36.263 C102.775,38.425 104.063,39.276 105.719,39.276 C108.318,39.276 109.997,37.298 109.997,37.298 L109.583,36.608 C109.583,36.608 108.686,37.16 107.697,37.16 C106.501,37.16 106.34,36.355 106.34,35.021 L106.34,30.352 L106.639,30.053 L109.238,30.053 L109.399,28.466 L106.317,28.466 L106.317,27.983 C106.317,26.166 106.524,25.752 106.524,25.752 L106.455,25.683 L103.925,25.591 L103.028,28.236 C102.476,28.742 101.395,28.949 101.395,28.949 L101.395,30.122 L102.844,30.122 C102.844,30.122 102.775,30.95 102.775,31.617 L102.775,36.263 Z" id="garment"></path>
        </g>
    </g>
</svg>