<?xml version="1.0" encoding="UTF-8"?>
<svg width="379px" height="86px" viewBox="0 0 379 86" version="1.1" xmlns="http://www.w3.org/2000/svg" xmlns:xlink="http://www.w3.org/1999/xlink">
    <!-- Generator: Sketch 42 (36781) - http://www.bohemiancoding.com/sketch -->
    <title>Page 1</title>
    <desc>Created with Sketch.</desc>
    <defs>
        <polygon id="path-1" points="0 0.3101 0 74 51.1756 74 51.1756 0.3101 5.42101086e-20 0.3101"></polygon>
        <polygon id="path-3" points="39.516 62.5494 39.516 0.5324 0.5341 0.5324 0.5341 62.5494 39.516 62.5494"></polygon>
    </defs>
    <g id="Page-1" stroke="none" stroke-width="1" fill="none" fill-rule="evenodd">
        <g id="blue" transform="translate(-161.000000, -135.000000)">
            <g id="Page-1" transform="translate(161.000000, 134.000000)">
                <g id="Group-3" transform="translate(0.000000, 12.467700)">
                    <mask id="mask-2" fill="white">
                        <use xlink:href="#path-1"></use>
                    </mask>
                    <g id="Clip-2"></g>
                    <path d="M30.4336,17.5081 C30.4336,11.6711 28.5576,5.4171 23.1386,5.4171 C18.2396,5.4171 16.5716,10.6291 16.5716,16.5701 C16.5716,22.7191 18.3436,27.7221 23.5546,27.7221 C28.7656,27.7221 30.4336,23.0311 30.4336,17.5081 M15.7376,52.1111 C14.4866,53.7781 13.1326,56.2801 13.1326,59.4071 C13.1326,65.2441 17.4056,68.5791 24.2846,68.5791 C29.2876,68.5791 36.6886,67.1201 36.6886,60.9711 C36.6886,56.3841 31.0596,55.5521 21.3666,53.4661 C19.4896,53.0491 17.6146,52.6331 15.7376,52.1111 M15.6336,31.9951 C7.6086,30.2231 1.2496,25.3241 1.2496,16.8821 C1.2496,6.0421 11.9856,0.3101 23.4506,0.3101 C30.3296,0.3101 33.1436,2.3951 39.2936,2.3951 L44.2966,2.3951 C47.6316,2.3951 51.1756,1.0401 51.1756,1.0401 L49.9246,10.0041 L46.3816,10.0041 C44.5046,10.0041 43.2536,9.7961 42.8366,9.7961 C43.2536,10.1081 45.8606,12.1931 45.8606,17.1961 C45.8606,27.3061 35.1246,32.8291 23.3466,32.8291 C21.6796,32.8291 20.0116,32.7251 18.4476,32.5171 C18.0316,33.2471 17.5106,34.6001 17.5106,35.5401 C17.5106,42.1051 49.8206,37.5201 49.8206,54.1961 C49.8206,65.6621 37.1046,74.0001 21.7836,74.0001 C12.7156,74.0001 -0.0004,69.5171 -0.0004,61.9091 C-0.0004,56.3841 6.5656,53.3621 12.5076,51.1731 C6.9826,49.4011 2.9176,47.0041 2.9176,42.6271 C2.9176,36.2681 11.5686,33.3511 15.6336,31.9951" id="Fill-1" fill="#4C586F" mask="url(#mask-2)"></path>
                </g>
                <path d="M72.1202,53.5308 C73.6842,53.5308 75.4552,52.9048 77.2272,51.8628 L77.2272,38.3138 L74.6212,38.8338 C69.5152,39.8778 67.2212,42.5868 67.2212,47.5898 C67.2212,51.6548 69.3062,53.5308 72.1202,53.5308 M73.6842,33.4148 L77.3322,32.8928 C77.3322,24.4508 77.4362,18.0938 72.8502,18.0938 C67.5342,18.0938 63.4692,29.8718 63.4692,29.8718 L57.8412,29.8718 L55.2352,19.9698 C55.2352,19.9698 64.0952,12.7778 78.9992,12.7778 C90.5682,12.7778 93.3822,17.0508 93.3822,27.6828 L93.3822,50.8218 C93.3822,53.8428 93.9032,55.7198 95.6762,55.7198 C97.2392,55.7198 99.0112,54.5728 99.0112,54.5728 L100.8872,57.6998 C100.8872,57.6998 95.8842,63.0168 87.4422,63.0168 C81.2922,63.0168 77.6442,60.4098 77.6442,56.2398 L77.6442,55.0948 C77.6442,55.0948 72.3292,63.0168 64.0952,63.0168 C58.3622,63.0168 51.0662,59.7858 51.0662,50.7178 C51.0662,39.9818 63.1572,34.9788 73.6842,33.4148" id="Fill-4" fill="#4C586F"></path>
                <path d="M103.9039,58.2217 C107.4469,57.6997 109.0109,55.1987 109.0109,51.4467 L109.0109,27.2667 C109.0109,23.0967 108.9069,20.4897 105.8849,20.4897 L102.5489,20.4897 L102.5489,16.8427 C115.6819,14.9667 125.4779,11.3197 125.4779,11.3197 L125.7909,11.6317 C125.7909,11.6317 124.2289,17.2607 124.2289,24.0347 C125.6869,21.8457 131.1069,12.7777 139.4449,12.7777 C144.9689,12.7777 146.4289,17.0507 146.4289,19.8657 C146.4289,23.3047 143.9269,27.4747 138.7159,27.4747 C134.8589,27.4747 134.1299,25.1807 131.4199,25.1807 C128.6059,25.1807 125.1659,27.4747 125.1659,27.4747 L125.1659,51.4467 C125.1659,54.5727 124.6449,57.0737 124.6449,57.0737 L133.7129,58.0137 L133.2959,61.4527 L103.9039,62.0767 L103.9039,58.2217 Z" id="Fill-6" fill="#4C586F"></path>
                <path d="M150.3827,58.2217 C154.0307,57.6997 155.4897,55.1987 155.4897,51.4467 L155.4897,27.1607 C155.4897,22.9927 155.3857,20.3857 152.3637,20.3857 L148.9237,20.3857 L148.9237,16.7387 C162.1607,14.7587 172.0617,11.3197 172.0617,11.3197 L172.3747,11.6317 C172.3747,11.6317 171.4367,13.2997 170.8117,22.5757 C174.1467,18.1987 179.5667,12.7777 187.8007,12.7777 C193.5327,12.7777 199.0577,15.1747 200.9327,21.4297 C204.9977,17.0507 209.5837,12.7777 217.5057,12.7777 C225.1137,12.7777 230.9507,16.9467 230.9507,26.8487 L230.9507,51.4467 C230.9507,54.5727 230.4297,56.8657 230.4297,56.8657 L237.9337,58.0137 L237.5167,61.4527 L211.1477,62.0767 L211.1477,58.2217 C213.5447,57.6997 214.7957,55.1987 214.7957,51.4467 L214.7957,31.9557 C214.7957,24.8687 213.1287,23.6167 208.5417,23.6167 C205.2057,23.6167 201.3497,24.6607 201.3497,27.2667 L201.3497,51.4467 C201.3497,54.5727 200.8287,56.8657 200.8287,56.8657 L206.5617,57.4917 L205.9357,61.4527 L181.6507,62.0767 L181.6507,58.2217 C183.9447,57.6997 185.1947,55.1987 185.1947,51.4467 L185.1947,31.9557 C185.1947,24.4507 182.9017,23.6167 179.3577,23.6167 C176.6477,23.6167 173.4167,24.4507 171.6447,25.4927 L171.6447,51.4467 C171.6447,54.5727 171.1247,56.8657 171.1247,56.8657 L176.8557,57.4917 L176.2307,61.4527 L150.3827,62.0767 L150.3827,58.2217 Z" id="Fill-8" fill="#4C586F"></path>
                <path d="M252.1008,32.0594 L266.2758,30.2874 C266.2758,30.2874 266.1708,18.4064 259.7088,18.4064 C255.2268,18.4064 252.2048,24.6604 252.1008,32.0594 M262.2108,12.7774 C272.0078,12.7774 280.7628,18.0944 281.1798,32.0594 C281.1798,32.0594 275.2388,34.1444 273.1548,34.4564 L253.4558,37.4804 L252.6218,38.8344 C254.0808,46.0264 258.2498,52.1754 268.1518,52.1754 C275.0298,52.1754 279.8248,48.5274 279.8248,48.5274 L281.1798,52.0714 C281.1798,52.0714 275.4478,63.0164 261.8978,63.0164 C246.2638,63.0164 237.4038,51.2374 237.4038,38.7304 C237.4038,24.4514 248.1398,12.7774 262.2108,12.7774" id="Fill-10" fill="#4C586F"></path>
                <path d="M283.9895,58.2217 C287.5325,57.6997 289.0965,55.1987 289.0965,51.4467 L289.0965,27.1607 C289.0965,22.9927 288.9925,20.3857 285.9705,20.3857 L282.6345,20.3857 L282.6345,16.7387 C295.7665,14.7587 305.6685,11.3197 305.6685,11.3197 L305.9815,11.6317 C305.9815,11.6317 305.0435,13.2997 304.3145,22.5757 C307.8575,18.1987 313.6945,12.7777 322.1365,12.7777 C329.3285,12.7777 334.8525,16.7387 334.8525,26.8487 L334.8525,51.4467 C334.8525,54.5727 334.3305,56.9697 334.3305,56.9697 L341.8355,58.0137 L341.4175,61.4527 L314.7365,62.0767 L314.7365,58.2217 C317.6555,57.6997 318.6975,55.1987 318.6975,51.4467 L318.6975,31.9557 C318.6975,24.8687 317.3425,23.6167 313.3815,23.6167 C310.4625,23.6167 307.1275,24.5547 305.2515,25.4927 L305.2515,51.4467 C305.2515,54.5727 304.7305,56.9697 304.7305,56.9697 L310.2545,58.0137 L309.8375,61.4527 L283.9895,62.0767 L283.9895,58.2217 Z" id="Fill-12" fill="#4C586F"></path>
                <g id="Group-16" transform="translate(339.000000, 0.467700)">
                    <mask id="mask-4" fill="white">
                        <use xlink:href="#path-3"></use>
                    </mask>
                    <g id="Clip-15"></g>
                    <path d="M6.7891,27.8404 C6.7891,24.8174 7.1011,21.0654 7.1011,21.0654 L0.5341,21.0654 L0.5341,15.7494 C0.5341,15.7494 5.4331,14.8114 7.9351,12.5194 L12.0001,0.5324 L23.4651,0.9504 L23.7771,1.2624 C23.7771,1.2624 22.8401,3.1374 22.8401,11.3724 L22.8401,13.5614 L36.8071,13.5614 L36.0771,20.7524 L24.2991,20.7524 L22.9441,22.1074 L22.9441,43.2654 C22.9441,49.3114 23.6731,52.9594 29.0941,52.9594 C33.5751,52.9594 37.6401,50.4574 37.6401,50.4574 L39.5161,53.5844 C39.5161,53.5844 31.9081,62.5494 20.1301,62.5494 C12.6261,62.5494 6.7891,58.6914 6.7891,48.8944 L6.7891,27.8404 Z" id="Fill-14" fill="#4C586F" mask="url(#mask-4)"></path>
                </g>
            </g>
        </g>
    </g>
</svg>