<?xml version="1.0" encoding="UTF-8"?>
<svg width="250px" height="150px" viewBox="0 0 250 150" version="1.1" xmlns="http://www.w3.org/2000/svg" xmlns:xlink="http://www.w3.org/1999/xlink">
    <!-- Generator: Sketch 42 (36781) - http://www.bohemiancoding.com/sketch -->
    <title>Artboard Copy 4</title>
    <desc>Created with Sketch.</desc>
    <defs></defs>
    <g id="Page-1" stroke="none" stroke-width="1" fill="none" fill-rule="evenodd">
        <g id="Artboard-Copy-4" fill="#4C586F">
            <g id="Group-20" transform="translate(31.000000, 64.000000)">
                <path d="M31.6086,21.403 C36.0496,21.403 38.4176,17.851 38.4176,11.536 C38.4176,5.319 36.0496,1.668 31.6086,1.668 C27.1686,1.668 24.7016,5.319 24.7016,11.338 C24.7016,17.851 27.0696,21.403 31.6086,21.403 M31.6086,0.287 C37.7266,0.287 41.7726,4.826 41.7726,11.536 C41.7726,18.245 37.6276,22.883 31.6086,22.883 C25.5896,22.883 21.3466,18.048 21.3466,11.536 C21.3466,4.925 25.5896,0.287 31.6086,0.287" id="Fill-2"></path>
                <path d="M81.4394,11.2397 C81.4394,5.3197 78.6764,1.9647 73.3484,1.9647 C70.9794,1.9647 70.0914,2.0627 70.0914,2.0627 C70.0914,2.0627 70.2894,2.5567 70.2894,3.4447 C70.1904,5.3197 70.1904,8.8717 70.1904,11.5357 C70.1904,14.4957 70.2894,17.5547 70.2894,19.4297 C70.2894,20.4167 70.0914,21.0087 70.0914,21.0087 C70.0914,21.0087 70.9794,21.1067 72.9534,21.1067 C78.5774,21.1067 81.4394,17.6537 81.4394,11.2397 M84.6954,11.1407 C84.6954,18.1467 80.7484,22.4887 73.9404,22.4887 L67.0324,22.4887 C67.0324,22.4887 67.2304,15.5817 67.2304,11.5357 C67.2304,7.5887 67.0324,0.5827 67.0324,0.5827 L74.9264,0.5827 C81.3404,0.5827 84.6954,4.2337 84.6954,11.1407" id="Fill-4"></path>
                <path d="M151.3006,21.403 C155.7406,21.403 158.2076,17.851 158.2076,11.536 C158.2076,5.319 155.7406,1.668 151.3006,1.668 C146.8606,1.668 144.4916,5.319 144.4916,11.338 C144.4916,17.851 146.8606,21.403 151.3006,21.403 M151.3006,0.287 C157.5176,0.287 161.5626,4.826 161.5626,11.536 C161.5626,18.245 157.4186,22.883 151.3006,22.883 C145.2816,22.883 141.1376,18.048 141.1376,11.536 C141.1376,4.925 145.2816,0.287 151.3006,0.287" id="Fill-6"></path>
                <path d="M2.0063,14.7921 C2.0063,20.1201 2.3023,22.4881 2.3023,22.4881 L0.0333,22.4881 C0.0333,22.4881 0.3283,13.7071 0.3283,5.2211 C0.3283,3.7411 0.2303,0.5831 0.2303,0.5831 L1.8093,0.5831 C1.8093,0.5831 7.9263,9.2661 11.9723,14.8911 C12.4663,15.5811 13.0573,16.5681 13.4523,17.3571 C13.4523,17.3571 13.2553,15.8771 13.2553,14.4961 L13.2553,8.2791 C13.2553,2.7541 12.9593,0.5831 12.9593,0.5831 L15.2293,0.5831 C15.2293,0.5831 14.9323,8.6741 14.9323,17.9501 C14.9323,18.8381 15.0313,22.4881 15.0313,22.4881 L13.4523,22.4881 C13.4523,22.4881 7.4333,14.0031 3.2893,8.2791 C2.6973,7.3911 2.3023,6.7991 1.9073,6.0101 C1.9073,6.0101 2.0063,7.8851 2.0063,8.8721 L2.0063,14.7921 Z" id="Fill-8"></path>
                <path d="M94.8589,21.403 C97.4249,21.304 99.2989,19.134 98.9049,16.766 C98.6089,14.891 97.2269,13.805 94.8589,12.424 C91.7999,10.746 90.0239,9.463 89.7279,6.503 C89.3329,2.853 92.2939,0.287 95.9439,0.188 C98.0169,0.09 99.8909,0.681 100.5819,0.879 L100.5819,3.247 C100.5819,3.247 98.9049,1.57 96.1419,1.57 C94.1679,1.57 92.0959,2.754 92.0959,4.925 C92.0959,6.799 93.6749,7.786 96.2409,9.365 C99.7929,11.437 101.5689,13.114 101.5689,16.173 C101.5689,20.12 98.4109,22.883 94.5629,22.883 C92.5899,22.883 90.6159,22.488 89.9249,22.192 L89.9249,19.627 C89.9249,19.627 91.7999,21.502 94.8589,21.403" id="Fill-10"></path>
                <path d="M119.0341,0.5828 L119.0341,2.6548 C119.0341,2.6548 117.4551,2.1618 114.7911,2.1618 L113.4091,2.1618 L113.4091,3.5428 L113.4091,8.5758 C113.4091,14.6938 113.7061,22.4888 113.7061,22.4888 L110.2521,22.4888 C110.2521,22.4888 110.5481,14.6938 110.5481,8.5758 C110.5481,7.4898 110.4491,3.5428 110.4491,3.5428 C110.4491,2.7538 110.5481,2.1618 110.5481,2.1618 L109.0681,2.1618 C106.5021,2.1618 104.9241,2.6548 104.9241,2.6548 L104.9241,0.5828 L119.0341,0.5828 Z" id="Fill-12"></path>
                <path d="M187.1195,22.4884 L183.8635,22.4884 C183.8635,22.4884 183.6655,14.4954 183.3695,8.8714 L183.3695,6.5034 C183.3695,6.5034 182.9755,7.5884 182.4815,8.7734 L176.4625,23.0804 C176.4625,23.0804 173.1075,15.3844 170.4435,9.5624 C170.0485,8.7734 169.5555,7.1944 169.1605,6.5034 C169.2595,7.6874 169.1605,8.9704 169.0615,9.8584 C168.6675,15.5814 168.5685,22.4884 168.5685,22.4884 L166.4965,22.4884 L167.8775,0.5824 L169.7525,0.5824 C169.7525,0.5824 173.7985,9.6614 176.3645,15.2854 C176.6595,15.9764 177.0545,16.7654 177.2525,17.5544 C177.4495,16.6664 177.7455,15.9764 178.0415,15.2854 C180.4095,9.6614 184.0605,0.5824 184.0605,0.5824 L185.9355,0.5824 L187.1195,22.4884 Z" id="Fill-14"></path>
                <path d="M136.5982,5.7141 C136.5982,8.6741 134.8222,10.6481 131.5662,11.4371 C133.6382,15.2851 137.8812,22.4881 137.8812,22.4881 L134.4272,22.4881 C134.4272,22.4881 132.6512,18.7391 127.9152,10.4501 L128.2112,10.4501 C131.7632,10.4501 133.6382,8.9701 133.6382,6.1091 C133.6382,3.6421 132.0592,1.9641 129.1982,1.9641 C128.3092,1.9641 127.0262,2.0631 127.0262,2.0631 C127.0262,2.0631 127.2242,2.5561 127.2242,3.9381 L127.2242,15.1871 C127.2242,20.1201 127.4212,22.4881 127.4212,22.4881 L124.1652,22.4881 C124.1652,22.4881 124.3622,13.9041 124.3622,9.3651 C124.3622,6.3061 124.1652,0.5831 124.1652,0.5831 L130.5792,0.5831 C134.5262,0.5831 136.5982,2.4581 136.5982,5.7141" id="Fill-16"></path>
                <path d="M60.4216,5.7141 C60.4216,8.6741 58.5466,10.6481 55.3896,11.4371 C57.4616,15.2851 61.6056,22.4881 61.6056,22.4881 L58.1526,22.4881 C58.1526,22.4881 56.3756,18.7391 51.6396,10.4501 L52.0346,10.4501 C55.4876,10.4501 57.3626,8.9701 57.3626,6.1091 C57.3626,3.6421 55.7836,1.9641 52.9226,1.9641 C52.1326,1.9641 50.7516,2.0631 50.7516,2.0631 C50.7516,2.0631 50.9486,2.5561 50.9486,3.9381 L50.9486,15.1871 C50.9486,20.1201 51.1466,22.4881 51.1466,22.4881 L47.8896,22.4881 C47.8896,22.4881 48.1856,13.9041 48.1856,9.3651 C48.1856,6.3061 47.8896,0.5831 47.8896,0.5831 L54.4026,0.5831 C58.2506,0.5831 60.4216,2.4581 60.4216,5.7141" id="Fill-18"></path>
            </g>
        </g>
    </g>
</svg>